<mxfile host="app.diagrams.net" agent="Mozilla/5.0 (Windows NT 10.0; Win64; x64) AppleWebKit/537.36 (KHTML, like Gecko) Chrome/132.0.0.0 Safari/537.36" version="26.0.11">
  <diagram name="Página-1" id="lYI38AyrfhCtHkl8VGAh">
    <mxGraphModel grid="0" page="0" gridSize="10" guides="1" tooltips="1" connect="1" arrows="1" fold="1" pageScale="1" pageWidth="827" pageHeight="1169" math="0" shadow="0">
      <root>
        <mxCell id="0" />
        <mxCell id="1" parent="0" />
        <mxCell id="rpjh0xaIXqAn6VRR7M-0-5" value="" style="rounded=0;whiteSpace=wrap;html=1;fillColor=#fff2cc;strokeColor=#d6b656;container=0;" vertex="1" parent="1">
          <mxGeometry x="127" y="-17" width="370" height="590" as="geometry" />
        </mxCell>
        <mxCell id="zGB1rMksP-2xpjI7y19z-15" style="edgeStyle=none;curved=1;rounded=0;orthogonalLoop=1;jettySize=auto;html=1;exitX=0.5;exitY=1;exitDx=0;exitDy=0;exitPerimeter=0;entryX=0.52;entryY=0.123;entryDx=0;entryDy=0;fontSize=12;startSize=8;endSize=8;entryPerimeter=0;" edge="1" parent="1" source="zGB1rMksP-2xpjI7y19z-17" target="zGB1rMksP-2xpjI7y19z-22">
          <mxGeometry relative="1" as="geometry">
            <mxPoint x="325.4999999999999" y="505" as="targetPoint" />
          </mxGeometry>
        </mxCell>
        <mxCell id="zGB1rMksP-2xpjI7y19z-16" value="true" style="edgeLabel;html=1;align=center;verticalAlign=middle;resizable=0;points=[];fontSize=12;" connectable="0" vertex="1" parent="zGB1rMksP-2xpjI7y19z-15">
          <mxGeometry x="-0.0865" y="-1" relative="1" as="geometry">
            <mxPoint as="offset" />
          </mxGeometry>
        </mxCell>
        <mxCell id="zGB1rMksP-2xpjI7y19z-17" value="numero &amp;lt;= 10" style="strokeWidth=2;html=1;shape=mxgraph.flowchart.decision;whiteSpace=wrap;" vertex="1" parent="1">
          <mxGeometry x="306" y="236" width="100" height="100" as="geometry" />
        </mxCell>
        <mxCell id="zGB1rMksP-2xpjI7y19z-20" style="edgeStyle=none;curved=1;rounded=0;orthogonalLoop=1;jettySize=auto;html=1;exitX=0.5;exitY=1;exitDx=0;exitDy=0;exitPerimeter=0;entryX=0.5;entryY=0;entryDx=0;entryDy=0;fontSize=12;startSize=8;endSize=8;" edge="1" parent="1" source="zGB1rMksP-2xpjI7y19z-18" target="zGB1rMksP-2xpjI7y19z-19">
          <mxGeometry relative="1" as="geometry" />
        </mxCell>
        <mxCell id="zGB1rMksP-2xpjI7y19z-18" value="Início" style="strokeWidth=2;html=1;shape=mxgraph.flowchart.start_1;whiteSpace=wrap;" vertex="1" parent="1">
          <mxGeometry x="306" y="10" width="100" height="60" as="geometry" />
        </mxCell>
        <mxCell id="rpjh0xaIXqAn6VRR7M-0-57" style="edgeStyle=none;curved=1;rounded=0;orthogonalLoop=1;jettySize=auto;html=1;exitX=0.5;exitY=1;exitDx=0;exitDy=0;entryX=0.5;entryY=0;entryDx=0;entryDy=0;fontSize=12;startSize=8;endSize=8;" edge="1" parent="1" source="zGB1rMksP-2xpjI7y19z-19" target="rpjh0xaIXqAn6VRR7M-0-56">
          <mxGeometry relative="1" as="geometry" />
        </mxCell>
        <mxCell id="zGB1rMksP-2xpjI7y19z-19" value="numero = 1" style="rounded=1;whiteSpace=wrap;html=1;absoluteArcSize=1;arcSize=14;strokeWidth=2;" vertex="1" parent="1">
          <mxGeometry x="317.5" y="90" width="77" height="77" as="geometry" />
        </mxCell>
        <mxCell id="zGB1rMksP-2xpjI7y19z-28" style="edgeStyle=none;curved=1;rounded=0;orthogonalLoop=1;jettySize=auto;html=1;exitX=0.5;exitY=1;exitDx=0;exitDy=0;entryX=0.5;entryY=0;entryDx=0;entryDy=0;fontSize=12;startSize=8;endSize=8;" edge="1" parent="1" source="zGB1rMksP-2xpjI7y19z-22" target="zGB1rMksP-2xpjI7y19z-23">
          <mxGeometry relative="1" as="geometry" />
        </mxCell>
        <mxCell id="zGB1rMksP-2xpjI7y19z-22" value="&lt;div&gt;numero&lt;/div&gt;" style="html=1;strokeWidth=2;shape=manualInput;whiteSpace=wrap;rounded=1;size=26;arcSize=11;" vertex="1" parent="1">
          <mxGeometry x="285.34" y="372" width="133.33" height="80" as="geometry" />
        </mxCell>
        <mxCell id="zGB1rMksP-2xpjI7y19z-23" value="numero + 1" style="rounded=1;whiteSpace=wrap;html=1;absoluteArcSize=1;arcSize=14;strokeWidth=2;" vertex="1" parent="1">
          <mxGeometry x="317" y="482" width="70" height="70" as="geometry" />
        </mxCell>
        <mxCell id="zGB1rMksP-2xpjI7y19z-29" style="edgeStyle=none;curved=1;rounded=0;orthogonalLoop=1;jettySize=auto;html=1;exitX=1;exitY=0.5;exitDx=0;exitDy=0;entryX=1;entryY=1;entryDx=0;entryDy=0;fontSize=12;startSize=8;endSize=8;" edge="1" parent="1" source="zGB1rMksP-2xpjI7y19z-23" target="rpjh0xaIXqAn6VRR7M-0-56">
          <mxGeometry relative="1" as="geometry">
            <Array as="points">
              <mxPoint x="522" y="320" />
            </Array>
          </mxGeometry>
        </mxCell>
        <mxCell id="zGB1rMksP-2xpjI7y19z-30" value="Fim" style="strokeWidth=2;html=1;shape=mxgraph.flowchart.terminator;whiteSpace=wrap;" vertex="1" parent="1">
          <mxGeometry x="163" y="264" width="100" height="60" as="geometry" />
        </mxCell>
        <mxCell id="zGB1rMksP-2xpjI7y19z-31" style="edgeStyle=none;curved=1;rounded=0;orthogonalLoop=1;jettySize=auto;html=1;exitX=0;exitY=0.5;exitDx=0;exitDy=0;exitPerimeter=0;entryX=1;entryY=0.5;entryDx=0;entryDy=0;entryPerimeter=0;fontSize=12;startSize=8;endSize=8;" edge="1" parent="1" source="zGB1rMksP-2xpjI7y19z-17" target="zGB1rMksP-2xpjI7y19z-30">
          <mxGeometry relative="1" as="geometry" />
        </mxCell>
        <mxCell id="zGB1rMksP-2xpjI7y19z-32" value="false" style="edgeLabel;html=1;align=center;verticalAlign=middle;resizable=0;points=[];fontSize=12;" connectable="0" vertex="1" parent="zGB1rMksP-2xpjI7y19z-31">
          <mxGeometry x="-0.1253" y="4" relative="1" as="geometry">
            <mxPoint as="offset" />
          </mxGeometry>
        </mxCell>
        <mxCell id="rpjh0xaIXqAn6VRR7M-0-36" value="&lt;b style=&quot;forced-color-adjust: none; color: rgb(241, 212, 30); font-family: Helvetica; font-style: normal; font-variant-ligatures: normal; font-variant-caps: normal; letter-spacing: normal; orphans: 2; text-align: center; text-indent: 0px; text-transform: none; widows: 2; word-spacing: 0px; -webkit-text-stroke-width: 0px; white-space: normal; text-decoration-thickness: initial; text-decoration-style: initial; text-decoration-color: initial;&quot;&gt;1&lt;/b&gt;" style="text;whiteSpace=wrap;html=1;fontSize=100;labelBackgroundColor=#fff2cc;" vertex="1" parent="1">
          <mxGeometry x="157" y="-9" width="73" height="135" as="geometry" />
        </mxCell>
        <mxCell id="rpjh0xaIXqAn6VRR7M-0-56" value="" style="ellipse;whiteSpace=wrap;html=1;aspect=fixed;" vertex="1" parent="1">
          <mxGeometry x="341" y="188" width="30" height="30" as="geometry" />
        </mxCell>
        <mxCell id="rpjh0xaIXqAn6VRR7M-0-58" style="edgeStyle=none;curved=1;rounded=0;orthogonalLoop=1;jettySize=auto;html=1;exitX=0.5;exitY=1;exitDx=0;exitDy=0;entryX=0.5;entryY=0;entryDx=0;entryDy=0;entryPerimeter=0;fontSize=12;startSize=8;endSize=8;" edge="1" parent="1" source="rpjh0xaIXqAn6VRR7M-0-56" target="zGB1rMksP-2xpjI7y19z-17">
          <mxGeometry relative="1" as="geometry" />
        </mxCell>
        <mxCell id="rpjh0xaIXqAn6VRR7M-0-78" value="" style="rounded=0;whiteSpace=wrap;html=1;fillColor=#fff2cc;strokeColor=#d6b656;container=0;" vertex="1" parent="1">
          <mxGeometry x="544" y="-17" width="370" height="590" as="geometry" />
        </mxCell>
        <mxCell id="rpjh0xaIXqAn6VRR7M-0-79" style="edgeStyle=none;curved=1;rounded=0;orthogonalLoop=1;jettySize=auto;html=1;exitX=0.5;exitY=1;exitDx=0;exitDy=0;exitPerimeter=0;entryX=0.52;entryY=0.123;entryDx=0;entryDy=0;fontSize=12;startSize=8;endSize=8;entryPerimeter=0;" edge="1" parent="1" source="rpjh0xaIXqAn6VRR7M-0-81" target="rpjh0xaIXqAn6VRR7M-0-87">
          <mxGeometry relative="1" as="geometry">
            <mxPoint x="742.4999999999999" y="505" as="targetPoint" />
          </mxGeometry>
        </mxCell>
        <mxCell id="rpjh0xaIXqAn6VRR7M-0-80" value="true" style="edgeLabel;html=1;align=center;verticalAlign=middle;resizable=0;points=[];fontSize=12;" connectable="0" vertex="1" parent="rpjh0xaIXqAn6VRR7M-0-79">
          <mxGeometry x="-0.0865" y="-1" relative="1" as="geometry">
            <mxPoint as="offset" />
          </mxGeometry>
        </mxCell>
        <mxCell id="rpjh0xaIXqAn6VRR7M-0-81" value="numero &amp;lt;= 20" style="strokeWidth=2;html=1;shape=mxgraph.flowchart.decision;whiteSpace=wrap;" vertex="1" parent="1">
          <mxGeometry x="723" y="236" width="100" height="100" as="geometry" />
        </mxCell>
        <mxCell id="rpjh0xaIXqAn6VRR7M-0-82" style="edgeStyle=none;curved=1;rounded=0;orthogonalLoop=1;jettySize=auto;html=1;exitX=0.5;exitY=1;exitDx=0;exitDy=0;exitPerimeter=0;entryX=0.5;entryY=0;entryDx=0;entryDy=0;fontSize=12;startSize=8;endSize=8;" edge="1" parent="1" source="rpjh0xaIXqAn6VRR7M-0-83" target="rpjh0xaIXqAn6VRR7M-0-85">
          <mxGeometry relative="1" as="geometry" />
        </mxCell>
        <mxCell id="rpjh0xaIXqAn6VRR7M-0-83" value="Início" style="strokeWidth=2;html=1;shape=mxgraph.flowchart.start_1;whiteSpace=wrap;" vertex="1" parent="1">
          <mxGeometry x="723" y="10" width="100" height="60" as="geometry" />
        </mxCell>
        <mxCell id="rpjh0xaIXqAn6VRR7M-0-84" style="edgeStyle=none;curved=1;rounded=0;orthogonalLoop=1;jettySize=auto;html=1;exitX=0.5;exitY=1;exitDx=0;exitDy=0;entryX=0.5;entryY=0;entryDx=0;entryDy=0;fontSize=12;startSize=8;endSize=8;" edge="1" parent="1" source="rpjh0xaIXqAn6VRR7M-0-85" target="rpjh0xaIXqAn6VRR7M-0-94">
          <mxGeometry relative="1" as="geometry" />
        </mxCell>
        <mxCell id="rpjh0xaIXqAn6VRR7M-0-85" value="numero = 2" style="rounded=1;whiteSpace=wrap;html=1;absoluteArcSize=1;arcSize=14;strokeWidth=2;" vertex="1" parent="1">
          <mxGeometry x="734.5" y="90" width="77" height="77" as="geometry" />
        </mxCell>
        <mxCell id="rpjh0xaIXqAn6VRR7M-0-86" style="edgeStyle=none;curved=1;rounded=0;orthogonalLoop=1;jettySize=auto;html=1;exitX=0.5;exitY=1;exitDx=0;exitDy=0;entryX=0.5;entryY=0;entryDx=0;entryDy=0;fontSize=12;startSize=8;endSize=8;" edge="1" parent="1" source="rpjh0xaIXqAn6VRR7M-0-87" target="rpjh0xaIXqAn6VRR7M-0-88">
          <mxGeometry relative="1" as="geometry" />
        </mxCell>
        <mxCell id="rpjh0xaIXqAn6VRR7M-0-87" value="&lt;div&gt;numero&lt;/div&gt;" style="html=1;strokeWidth=2;shape=manualInput;whiteSpace=wrap;rounded=1;size=26;arcSize=11;" vertex="1" parent="1">
          <mxGeometry x="702.3399999999999" y="372" width="133.33" height="80" as="geometry" />
        </mxCell>
        <mxCell id="rpjh0xaIXqAn6VRR7M-0-88" value="numero + 2" style="rounded=1;whiteSpace=wrap;html=1;absoluteArcSize=1;arcSize=14;strokeWidth=2;" vertex="1" parent="1">
          <mxGeometry x="734" y="482" width="70" height="70" as="geometry" />
        </mxCell>
        <mxCell id="rpjh0xaIXqAn6VRR7M-0-89" style="edgeStyle=none;curved=1;rounded=0;orthogonalLoop=1;jettySize=auto;html=1;exitX=1;exitY=0.5;exitDx=0;exitDy=0;entryX=1;entryY=1;entryDx=0;entryDy=0;fontSize=12;startSize=8;endSize=8;" edge="1" parent="1" source="rpjh0xaIXqAn6VRR7M-0-88" target="rpjh0xaIXqAn6VRR7M-0-94">
          <mxGeometry relative="1" as="geometry">
            <Array as="points">
              <mxPoint x="939" y="320" />
            </Array>
          </mxGeometry>
        </mxCell>
        <mxCell id="rpjh0xaIXqAn6VRR7M-0-90" value="Fim" style="strokeWidth=2;html=1;shape=mxgraph.flowchart.terminator;whiteSpace=wrap;" vertex="1" parent="1">
          <mxGeometry x="580" y="264" width="100" height="60" as="geometry" />
        </mxCell>
        <mxCell id="rpjh0xaIXqAn6VRR7M-0-91" style="edgeStyle=none;curved=1;rounded=0;orthogonalLoop=1;jettySize=auto;html=1;exitX=0;exitY=0.5;exitDx=0;exitDy=0;exitPerimeter=0;entryX=1;entryY=0.5;entryDx=0;entryDy=0;entryPerimeter=0;fontSize=12;startSize=8;endSize=8;" edge="1" parent="1" source="rpjh0xaIXqAn6VRR7M-0-81" target="rpjh0xaIXqAn6VRR7M-0-90">
          <mxGeometry relative="1" as="geometry" />
        </mxCell>
        <mxCell id="rpjh0xaIXqAn6VRR7M-0-92" value="false" style="edgeLabel;html=1;align=center;verticalAlign=middle;resizable=0;points=[];fontSize=12;" connectable="0" vertex="1" parent="rpjh0xaIXqAn6VRR7M-0-91">
          <mxGeometry x="-0.1253" y="4" relative="1" as="geometry">
            <mxPoint as="offset" />
          </mxGeometry>
        </mxCell>
        <mxCell id="rpjh0xaIXqAn6VRR7M-0-93" value="&lt;b style=&quot;forced-color-adjust: none; color: rgb(241, 212, 30); font-family: Helvetica; font-style: normal; font-variant-ligatures: normal; font-variant-caps: normal; letter-spacing: normal; orphans: 2; text-align: center; text-indent: 0px; text-transform: none; widows: 2; word-spacing: 0px; -webkit-text-stroke-width: 0px; white-space: normal; text-decoration-thickness: initial; text-decoration-style: initial; text-decoration-color: initial;&quot;&gt;2&lt;/b&gt;" style="text;whiteSpace=wrap;html=1;fontSize=100;labelBackgroundColor=#fff2cc;" vertex="1" parent="1">
          <mxGeometry x="574" y="-9" width="73" height="135" as="geometry" />
        </mxCell>
        <mxCell id="rpjh0xaIXqAn6VRR7M-0-94" value="" style="ellipse;whiteSpace=wrap;html=1;aspect=fixed;" vertex="1" parent="1">
          <mxGeometry x="758" y="188" width="30" height="30" as="geometry" />
        </mxCell>
        <mxCell id="rpjh0xaIXqAn6VRR7M-0-95" style="edgeStyle=none;curved=1;rounded=0;orthogonalLoop=1;jettySize=auto;html=1;exitX=0.5;exitY=1;exitDx=0;exitDy=0;entryX=0.5;entryY=0;entryDx=0;entryDy=0;entryPerimeter=0;fontSize=12;startSize=8;endSize=8;" edge="1" parent="1" source="rpjh0xaIXqAn6VRR7M-0-94" target="rpjh0xaIXqAn6VRR7M-0-81">
          <mxGeometry relative="1" as="geometry" />
        </mxCell>
        <mxCell id="rpjh0xaIXqAn6VRR7M-0-97" value="" style="rounded=0;whiteSpace=wrap;html=1;fillColor=#fff2cc;strokeColor=#d6b656;container=0;" vertex="1" parent="1">
          <mxGeometry x="962" y="-17" width="370" height="590" as="geometry" />
        </mxCell>
        <mxCell id="rpjh0xaIXqAn6VRR7M-0-98" style="edgeStyle=none;curved=1;rounded=0;orthogonalLoop=1;jettySize=auto;html=1;exitX=0.5;exitY=1;exitDx=0;exitDy=0;exitPerimeter=0;entryX=0.52;entryY=0.123;entryDx=0;entryDy=0;fontSize=12;startSize=8;endSize=8;entryPerimeter=0;" edge="1" parent="1" source="rpjh0xaIXqAn6VRR7M-0-100" target="rpjh0xaIXqAn6VRR7M-0-106">
          <mxGeometry relative="1" as="geometry">
            <mxPoint x="1160.5" y="505" as="targetPoint" />
          </mxGeometry>
        </mxCell>
        <mxCell id="rpjh0xaIXqAn6VRR7M-0-99" value="true" style="edgeLabel;html=1;align=center;verticalAlign=middle;resizable=0;points=[];fontSize=12;" connectable="0" vertex="1" parent="rpjh0xaIXqAn6VRR7M-0-98">
          <mxGeometry x="-0.0865" y="-1" relative="1" as="geometry">
            <mxPoint as="offset" />
          </mxGeometry>
        </mxCell>
        <mxCell id="rpjh0xaIXqAn6VRR7M-0-100" value="numero &amp;gt;= 1" style="strokeWidth=2;html=1;shape=mxgraph.flowchart.decision;whiteSpace=wrap;" vertex="1" parent="1">
          <mxGeometry x="1141" y="236" width="100" height="100" as="geometry" />
        </mxCell>
        <mxCell id="rpjh0xaIXqAn6VRR7M-0-101" style="edgeStyle=none;curved=1;rounded=0;orthogonalLoop=1;jettySize=auto;html=1;exitX=0.5;exitY=1;exitDx=0;exitDy=0;exitPerimeter=0;entryX=0.5;entryY=0;entryDx=0;entryDy=0;fontSize=12;startSize=8;endSize=8;" edge="1" parent="1" source="rpjh0xaIXqAn6VRR7M-0-102" target="rpjh0xaIXqAn6VRR7M-0-104">
          <mxGeometry relative="1" as="geometry" />
        </mxCell>
        <mxCell id="rpjh0xaIXqAn6VRR7M-0-102" value="Início" style="strokeWidth=2;html=1;shape=mxgraph.flowchart.start_1;whiteSpace=wrap;" vertex="1" parent="1">
          <mxGeometry x="1141" y="10" width="100" height="60" as="geometry" />
        </mxCell>
        <mxCell id="rpjh0xaIXqAn6VRR7M-0-103" style="edgeStyle=none;curved=1;rounded=0;orthogonalLoop=1;jettySize=auto;html=1;exitX=0.5;exitY=1;exitDx=0;exitDy=0;entryX=0.5;entryY=0;entryDx=0;entryDy=0;fontSize=12;startSize=8;endSize=8;" edge="1" parent="1" source="rpjh0xaIXqAn6VRR7M-0-104" target="rpjh0xaIXqAn6VRR7M-0-113">
          <mxGeometry relative="1" as="geometry" />
        </mxCell>
        <mxCell id="rpjh0xaIXqAn6VRR7M-0-104" value="numero = 10" style="rounded=1;whiteSpace=wrap;html=1;absoluteArcSize=1;arcSize=14;strokeWidth=2;" vertex="1" parent="1">
          <mxGeometry x="1152.5" y="90" width="77" height="77" as="geometry" />
        </mxCell>
        <mxCell id="rpjh0xaIXqAn6VRR7M-0-105" style="edgeStyle=none;curved=1;rounded=0;orthogonalLoop=1;jettySize=auto;html=1;exitX=0.5;exitY=1;exitDx=0;exitDy=0;entryX=0.5;entryY=0;entryDx=0;entryDy=0;fontSize=12;startSize=8;endSize=8;" edge="1" parent="1" source="rpjh0xaIXqAn6VRR7M-0-106" target="rpjh0xaIXqAn6VRR7M-0-107">
          <mxGeometry relative="1" as="geometry" />
        </mxCell>
        <mxCell id="rpjh0xaIXqAn6VRR7M-0-106" value="&lt;div&gt;numero&lt;/div&gt;" style="html=1;strokeWidth=2;shape=manualInput;whiteSpace=wrap;rounded=1;size=26;arcSize=11;" vertex="1" parent="1">
          <mxGeometry x="1120.34" y="372" width="133.33" height="80" as="geometry" />
        </mxCell>
        <mxCell id="rpjh0xaIXqAn6VRR7M-0-107" value="numero - 1" style="rounded=1;whiteSpace=wrap;html=1;absoluteArcSize=1;arcSize=14;strokeWidth=2;" vertex="1" parent="1">
          <mxGeometry x="1152" y="482" width="70" height="70" as="geometry" />
        </mxCell>
        <mxCell id="rpjh0xaIXqAn6VRR7M-0-108" style="edgeStyle=none;curved=1;rounded=0;orthogonalLoop=1;jettySize=auto;html=1;exitX=1;exitY=0.5;exitDx=0;exitDy=0;entryX=1;entryY=1;entryDx=0;entryDy=0;fontSize=12;startSize=8;endSize=8;" edge="1" parent="1" source="rpjh0xaIXqAn6VRR7M-0-107" target="rpjh0xaIXqAn6VRR7M-0-113">
          <mxGeometry relative="1" as="geometry">
            <Array as="points">
              <mxPoint x="1357" y="320" />
            </Array>
          </mxGeometry>
        </mxCell>
        <mxCell id="rpjh0xaIXqAn6VRR7M-0-109" value="Fim" style="strokeWidth=2;html=1;shape=mxgraph.flowchart.terminator;whiteSpace=wrap;" vertex="1" parent="1">
          <mxGeometry x="998" y="264" width="100" height="60" as="geometry" />
        </mxCell>
        <mxCell id="rpjh0xaIXqAn6VRR7M-0-110" style="edgeStyle=none;curved=1;rounded=0;orthogonalLoop=1;jettySize=auto;html=1;exitX=0;exitY=0.5;exitDx=0;exitDy=0;exitPerimeter=0;entryX=1;entryY=0.5;entryDx=0;entryDy=0;entryPerimeter=0;fontSize=12;startSize=8;endSize=8;" edge="1" parent="1" source="rpjh0xaIXqAn6VRR7M-0-100" target="rpjh0xaIXqAn6VRR7M-0-109">
          <mxGeometry relative="1" as="geometry" />
        </mxCell>
        <mxCell id="rpjh0xaIXqAn6VRR7M-0-111" value="false" style="edgeLabel;html=1;align=center;verticalAlign=middle;resizable=0;points=[];fontSize=12;" connectable="0" vertex="1" parent="rpjh0xaIXqAn6VRR7M-0-110">
          <mxGeometry x="-0.1253" y="4" relative="1" as="geometry">
            <mxPoint as="offset" />
          </mxGeometry>
        </mxCell>
        <mxCell id="rpjh0xaIXqAn6VRR7M-0-112" value="&lt;b style=&quot;forced-color-adjust: none; color: rgb(241, 212, 30); font-family: Helvetica; font-style: normal; font-variant-ligatures: normal; font-variant-caps: normal; letter-spacing: normal; orphans: 2; text-align: center; text-indent: 0px; text-transform: none; widows: 2; word-spacing: 0px; -webkit-text-stroke-width: 0px; white-space: normal; text-decoration-thickness: initial; text-decoration-style: initial; text-decoration-color: initial;&quot;&gt;3&lt;/b&gt;" style="text;whiteSpace=wrap;html=1;fontSize=100;labelBackgroundColor=#fff2cc;" vertex="1" parent="1">
          <mxGeometry x="992" y="-9" width="73" height="135" as="geometry" />
        </mxCell>
        <mxCell id="rpjh0xaIXqAn6VRR7M-0-113" value="" style="ellipse;whiteSpace=wrap;html=1;aspect=fixed;" vertex="1" parent="1">
          <mxGeometry x="1176" y="188" width="30" height="30" as="geometry" />
        </mxCell>
        <mxCell id="rpjh0xaIXqAn6VRR7M-0-114" style="edgeStyle=none;curved=1;rounded=0;orthogonalLoop=1;jettySize=auto;html=1;exitX=0.5;exitY=1;exitDx=0;exitDy=0;entryX=0.5;entryY=0;entryDx=0;entryDy=0;entryPerimeter=0;fontSize=12;startSize=8;endSize=8;" edge="1" parent="1" source="rpjh0xaIXqAn6VRR7M-0-113" target="rpjh0xaIXqAn6VRR7M-0-100">
          <mxGeometry relative="1" as="geometry" />
        </mxCell>
        <mxCell id="rpjh0xaIXqAn6VRR7M-0-133" value="" style="rounded=0;whiteSpace=wrap;html=1;fillColor=#fff2cc;strokeColor=#d6b656;container=0;" vertex="1" parent="1">
          <mxGeometry x="1378" y="-9" width="370" height="590" as="geometry" />
        </mxCell>
        <mxCell id="rpjh0xaIXqAn6VRR7M-0-134" style="edgeStyle=none;curved=1;rounded=0;orthogonalLoop=1;jettySize=auto;html=1;exitX=0.5;exitY=1;exitDx=0;exitDy=0;exitPerimeter=0;entryX=0.52;entryY=0.123;entryDx=0;entryDy=0;fontSize=12;startSize=8;endSize=8;entryPerimeter=0;" edge="1" parent="1" source="rpjh0xaIXqAn6VRR7M-0-136" target="rpjh0xaIXqAn6VRR7M-0-142">
          <mxGeometry relative="1" as="geometry">
            <mxPoint x="1576.5" y="513" as="targetPoint" />
          </mxGeometry>
        </mxCell>
        <mxCell id="rpjh0xaIXqAn6VRR7M-0-135" value="true" style="edgeLabel;html=1;align=center;verticalAlign=middle;resizable=0;points=[];fontSize=12;" connectable="0" vertex="1" parent="rpjh0xaIXqAn6VRR7M-0-134">
          <mxGeometry x="-0.0865" y="-1" relative="1" as="geometry">
            <mxPoint as="offset" />
          </mxGeometry>
        </mxCell>
        <mxCell id="rpjh0xaIXqAn6VRR7M-0-136" value="numero &amp;lt;= 50" style="strokeWidth=2;html=1;shape=mxgraph.flowchart.decision;whiteSpace=wrap;" vertex="1" parent="1">
          <mxGeometry x="1557" y="244" width="100" height="100" as="geometry" />
        </mxCell>
        <mxCell id="rpjh0xaIXqAn6VRR7M-0-137" style="edgeStyle=none;curved=1;rounded=0;orthogonalLoop=1;jettySize=auto;html=1;exitX=0.5;exitY=1;exitDx=0;exitDy=0;exitPerimeter=0;entryX=0.5;entryY=0;entryDx=0;entryDy=0;fontSize=12;startSize=8;endSize=8;" edge="1" parent="1" source="rpjh0xaIXqAn6VRR7M-0-138" target="rpjh0xaIXqAn6VRR7M-0-140">
          <mxGeometry relative="1" as="geometry" />
        </mxCell>
        <mxCell id="rpjh0xaIXqAn6VRR7M-0-138" value="Início" style="strokeWidth=2;html=1;shape=mxgraph.flowchart.start_1;whiteSpace=wrap;" vertex="1" parent="1">
          <mxGeometry x="1557" y="18" width="100" height="60" as="geometry" />
        </mxCell>
        <mxCell id="rpjh0xaIXqAn6VRR7M-0-139" style="edgeStyle=none;curved=1;rounded=0;orthogonalLoop=1;jettySize=auto;html=1;exitX=0.5;exitY=1;exitDx=0;exitDy=0;entryX=0.5;entryY=0;entryDx=0;entryDy=0;fontSize=12;startSize=8;endSize=8;" edge="1" parent="1" source="rpjh0xaIXqAn6VRR7M-0-140" target="rpjh0xaIXqAn6VRR7M-0-149">
          <mxGeometry relative="1" as="geometry" />
        </mxCell>
        <mxCell id="rpjh0xaIXqAn6VRR7M-0-140" value="numero = 5" style="rounded=1;whiteSpace=wrap;html=1;absoluteArcSize=1;arcSize=14;strokeWidth=2;" vertex="1" parent="1">
          <mxGeometry x="1568.5" y="98" width="77" height="77" as="geometry" />
        </mxCell>
        <mxCell id="rpjh0xaIXqAn6VRR7M-0-141" style="edgeStyle=none;curved=1;rounded=0;orthogonalLoop=1;jettySize=auto;html=1;exitX=0.5;exitY=1;exitDx=0;exitDy=0;entryX=0.5;entryY=0;entryDx=0;entryDy=0;fontSize=12;startSize=8;endSize=8;" edge="1" parent="1" source="rpjh0xaIXqAn6VRR7M-0-142" target="rpjh0xaIXqAn6VRR7M-0-143">
          <mxGeometry relative="1" as="geometry" />
        </mxCell>
        <mxCell id="rpjh0xaIXqAn6VRR7M-0-142" value="&lt;div&gt;numero&lt;/div&gt;" style="html=1;strokeWidth=2;shape=manualInput;whiteSpace=wrap;rounded=1;size=26;arcSize=11;" vertex="1" parent="1">
          <mxGeometry x="1536.34" y="380" width="133.33" height="80" as="geometry" />
        </mxCell>
        <mxCell id="rpjh0xaIXqAn6VRR7M-0-143" value="numero + 5" style="rounded=1;whiteSpace=wrap;html=1;absoluteArcSize=1;arcSize=14;strokeWidth=2;" vertex="1" parent="1">
          <mxGeometry x="1568" y="490" width="70" height="70" as="geometry" />
        </mxCell>
        <mxCell id="rpjh0xaIXqAn6VRR7M-0-144" style="edgeStyle=none;curved=1;rounded=0;orthogonalLoop=1;jettySize=auto;html=1;exitX=1;exitY=0.5;exitDx=0;exitDy=0;entryX=1;entryY=1;entryDx=0;entryDy=0;fontSize=12;startSize=8;endSize=8;" edge="1" parent="1" source="rpjh0xaIXqAn6VRR7M-0-143" target="rpjh0xaIXqAn6VRR7M-0-149">
          <mxGeometry relative="1" as="geometry">
            <Array as="points">
              <mxPoint x="1773" y="328" />
            </Array>
          </mxGeometry>
        </mxCell>
        <mxCell id="rpjh0xaIXqAn6VRR7M-0-145" value="Fim" style="strokeWidth=2;html=1;shape=mxgraph.flowchart.terminator;whiteSpace=wrap;" vertex="1" parent="1">
          <mxGeometry x="1414" y="272" width="100" height="60" as="geometry" />
        </mxCell>
        <mxCell id="rpjh0xaIXqAn6VRR7M-0-146" style="edgeStyle=none;curved=1;rounded=0;orthogonalLoop=1;jettySize=auto;html=1;exitX=0;exitY=0.5;exitDx=0;exitDy=0;exitPerimeter=0;entryX=1;entryY=0.5;entryDx=0;entryDy=0;entryPerimeter=0;fontSize=12;startSize=8;endSize=8;" edge="1" parent="1" source="rpjh0xaIXqAn6VRR7M-0-136" target="rpjh0xaIXqAn6VRR7M-0-145">
          <mxGeometry relative="1" as="geometry" />
        </mxCell>
        <mxCell id="rpjh0xaIXqAn6VRR7M-0-147" value="false" style="edgeLabel;html=1;align=center;verticalAlign=middle;resizable=0;points=[];fontSize=12;" connectable="0" vertex="1" parent="rpjh0xaIXqAn6VRR7M-0-146">
          <mxGeometry x="-0.1253" y="4" relative="1" as="geometry">
            <mxPoint as="offset" />
          </mxGeometry>
        </mxCell>
        <mxCell id="rpjh0xaIXqAn6VRR7M-0-148" value="&lt;b style=&quot;forced-color-adjust: none; color: rgb(241, 212, 30); font-family: Helvetica; font-style: normal; font-variant-ligatures: normal; font-variant-caps: normal; letter-spacing: normal; orphans: 2; text-align: center; text-indent: 0px; text-transform: none; widows: 2; word-spacing: 0px; -webkit-text-stroke-width: 0px; white-space: normal; text-decoration-thickness: initial; text-decoration-style: initial; text-decoration-color: initial;&quot;&gt;4&lt;/b&gt;" style="text;whiteSpace=wrap;html=1;fontSize=100;labelBackgroundColor=#fff2cc;" vertex="1" parent="1">
          <mxGeometry x="1408" y="-1" width="73" height="135" as="geometry" />
        </mxCell>
        <mxCell id="rpjh0xaIXqAn6VRR7M-0-149" value="" style="ellipse;whiteSpace=wrap;html=1;aspect=fixed;" vertex="1" parent="1">
          <mxGeometry x="1592" y="196" width="30" height="30" as="geometry" />
        </mxCell>
        <mxCell id="rpjh0xaIXqAn6VRR7M-0-150" style="edgeStyle=none;curved=1;rounded=0;orthogonalLoop=1;jettySize=auto;html=1;exitX=0.5;exitY=1;exitDx=0;exitDy=0;entryX=0.5;entryY=0;entryDx=0;entryDy=0;entryPerimeter=0;fontSize=12;startSize=8;endSize=8;" edge="1" parent="1" source="rpjh0xaIXqAn6VRR7M-0-149" target="rpjh0xaIXqAn6VRR7M-0-136">
          <mxGeometry relative="1" as="geometry" />
        </mxCell>
        <mxCell id="rpjh0xaIXqAn6VRR7M-0-151" value="" style="rounded=0;whiteSpace=wrap;html=1;fillColor=#fff2cc;strokeColor=#d6b656;container=0;" vertex="1" parent="1">
          <mxGeometry x="1783" y="-167" width="370" height="748" as="geometry" />
        </mxCell>
        <mxCell id="rpjh0xaIXqAn6VRR7M-0-152" style="edgeStyle=none;curved=1;rounded=0;orthogonalLoop=1;jettySize=auto;html=1;exitX=0.5;exitY=1;exitDx=0;exitDy=0;exitPerimeter=0;entryX=0.52;entryY=0.123;entryDx=0;entryDy=0;fontSize=12;startSize=8;endSize=8;entryPerimeter=0;" edge="1" parent="1" source="rpjh0xaIXqAn6VRR7M-0-154" target="rpjh0xaIXqAn6VRR7M-0-160">
          <mxGeometry relative="1" as="geometry">
            <mxPoint x="1981.5" y="426" as="targetPoint" />
          </mxGeometry>
        </mxCell>
        <mxCell id="rpjh0xaIXqAn6VRR7M-0-153" value="true" style="edgeLabel;html=1;align=center;verticalAlign=middle;resizable=0;points=[];fontSize=12;" connectable="0" vertex="1" parent="rpjh0xaIXqAn6VRR7M-0-152">
          <mxGeometry x="-0.0865" y="-1" relative="1" as="geometry">
            <mxPoint as="offset" />
          </mxGeometry>
        </mxCell>
        <mxCell id="rpjh0xaIXqAn6VRR7M-0-154" value="numero &amp;lt;= 100" style="strokeWidth=2;html=1;shape=mxgraph.flowchart.decision;whiteSpace=wrap;" vertex="1" parent="1">
          <mxGeometry x="1962" y="157" width="100" height="100" as="geometry" />
        </mxCell>
        <mxCell id="rpjh0xaIXqAn6VRR7M-0-171" style="edgeStyle=none;curved=1;rounded=0;orthogonalLoop=1;jettySize=auto;html=1;entryX=0.5;entryY=0;entryDx=0;entryDy=0;fontSize=12;startSize=8;endSize=8;" edge="1" parent="1" source="rpjh0xaIXqAn6VRR7M-0-156" target="rpjh0xaIXqAn6VRR7M-0-169">
          <mxGeometry relative="1" as="geometry" />
        </mxCell>
        <mxCell id="rpjh0xaIXqAn6VRR7M-0-156" value="Início" style="strokeWidth=2;html=1;shape=mxgraph.flowchart.start_1;whiteSpace=wrap;" vertex="1" parent="1">
          <mxGeometry x="1962" y="-162" width="100" height="60" as="geometry" />
        </mxCell>
        <mxCell id="rpjh0xaIXqAn6VRR7M-0-157" style="edgeStyle=none;curved=1;rounded=0;orthogonalLoop=1;jettySize=auto;html=1;exitX=0.5;exitY=1;exitDx=0;exitDy=0;entryX=0.5;entryY=0;entryDx=0;entryDy=0;fontSize=12;startSize=8;endSize=8;" edge="1" parent="1" source="rpjh0xaIXqAn6VRR7M-0-158" target="rpjh0xaIXqAn6VRR7M-0-167">
          <mxGeometry relative="1" as="geometry" />
        </mxCell>
        <mxCell id="rpjh0xaIXqAn6VRR7M-0-158" value="numero2 = 0" style="rounded=1;whiteSpace=wrap;html=1;absoluteArcSize=1;arcSize=14;strokeWidth=2;" vertex="1" parent="1">
          <mxGeometry x="1973.5" y="11" width="77" height="77" as="geometry" />
        </mxCell>
        <mxCell id="rpjh0xaIXqAn6VRR7M-0-159" style="edgeStyle=none;curved=1;rounded=0;orthogonalLoop=1;jettySize=auto;html=1;exitX=0.5;exitY=1;exitDx=0;exitDy=0;entryX=0.5;entryY=0;entryDx=0;entryDy=0;fontSize=12;startSize=8;endSize=8;" edge="1" parent="1" source="rpjh0xaIXqAn6VRR7M-0-160" target="rpjh0xaIXqAn6VRR7M-0-161">
          <mxGeometry relative="1" as="geometry" />
        </mxCell>
        <mxCell id="rpjh0xaIXqAn6VRR7M-0-160" value="&lt;div&gt;numero&lt;/div&gt;" style="html=1;strokeWidth=2;shape=manualInput;whiteSpace=wrap;rounded=1;size=26;arcSize=11;" vertex="1" parent="1">
          <mxGeometry x="1941.34" y="293" width="133.33" height="80" as="geometry" />
        </mxCell>
        <mxCell id="rpjh0xaIXqAn6VRR7M-0-173" style="edgeStyle=none;curved=1;rounded=0;orthogonalLoop=1;jettySize=auto;html=1;exitX=0.5;exitY=1;exitDx=0;exitDy=0;entryX=0.5;entryY=0;entryDx=0;entryDy=0;fontSize=12;startSize=8;endSize=8;" edge="1" parent="1" source="rpjh0xaIXqAn6VRR7M-0-161" target="rpjh0xaIXqAn6VRR7M-0-172">
          <mxGeometry relative="1" as="geometry" />
        </mxCell>
        <mxCell id="rpjh0xaIXqAn6VRR7M-0-161" value="numero1 = numero1 + numero2" style="rounded=1;whiteSpace=wrap;html=1;absoluteArcSize=1;arcSize=14;strokeWidth=2;" vertex="1" parent="1">
          <mxGeometry x="1973" y="403" width="70" height="70" as="geometry" />
        </mxCell>
        <mxCell id="rpjh0xaIXqAn6VRR7M-0-163" value="Fim" style="strokeWidth=2;html=1;shape=mxgraph.flowchart.terminator;whiteSpace=wrap;" vertex="1" parent="1">
          <mxGeometry x="1819" y="185" width="100" height="60" as="geometry" />
        </mxCell>
        <mxCell id="rpjh0xaIXqAn6VRR7M-0-164" style="edgeStyle=none;curved=1;rounded=0;orthogonalLoop=1;jettySize=auto;html=1;exitX=0;exitY=0.5;exitDx=0;exitDy=0;exitPerimeter=0;entryX=1;entryY=0.5;entryDx=0;entryDy=0;entryPerimeter=0;fontSize=12;startSize=8;endSize=8;" edge="1" parent="1" source="rpjh0xaIXqAn6VRR7M-0-154" target="rpjh0xaIXqAn6VRR7M-0-163">
          <mxGeometry relative="1" as="geometry" />
        </mxCell>
        <mxCell id="rpjh0xaIXqAn6VRR7M-0-165" value="false" style="edgeLabel;html=1;align=center;verticalAlign=middle;resizable=0;points=[];fontSize=12;" connectable="0" vertex="1" parent="rpjh0xaIXqAn6VRR7M-0-164">
          <mxGeometry x="-0.1253" y="4" relative="1" as="geometry">
            <mxPoint as="offset" />
          </mxGeometry>
        </mxCell>
        <mxCell id="rpjh0xaIXqAn6VRR7M-0-166" value="&lt;b style=&quot;forced-color-adjust: none; color: rgb(241, 212, 30); font-family: Helvetica; font-style: normal; font-variant-ligatures: normal; font-variant-caps: normal; letter-spacing: normal; orphans: 2; text-align: center; text-indent: 0px; text-transform: none; widows: 2; word-spacing: 0px; -webkit-text-stroke-width: 0px; white-space: normal; text-decoration-thickness: initial; text-decoration-style: initial; text-decoration-color: initial;&quot;&gt;5&lt;/b&gt;" style="text;whiteSpace=wrap;html=1;fontSize=100;labelBackgroundColor=#fff2cc;" vertex="1" parent="1">
          <mxGeometry x="1797" y="-175" width="73" height="135" as="geometry" />
        </mxCell>
        <mxCell id="rpjh0xaIXqAn6VRR7M-0-167" value="" style="ellipse;whiteSpace=wrap;html=1;aspect=fixed;" vertex="1" parent="1">
          <mxGeometry x="1997" y="109" width="30" height="30" as="geometry" />
        </mxCell>
        <mxCell id="rpjh0xaIXqAn6VRR7M-0-168" style="edgeStyle=none;curved=1;rounded=0;orthogonalLoop=1;jettySize=auto;html=1;exitX=0.5;exitY=1;exitDx=0;exitDy=0;entryX=0.5;entryY=0;entryDx=0;entryDy=0;entryPerimeter=0;fontSize=12;startSize=8;endSize=8;" edge="1" parent="1" source="rpjh0xaIXqAn6VRR7M-0-167" target="rpjh0xaIXqAn6VRR7M-0-154">
          <mxGeometry relative="1" as="geometry" />
        </mxCell>
        <mxCell id="rpjh0xaIXqAn6VRR7M-0-170" style="edgeStyle=none;curved=1;rounded=0;orthogonalLoop=1;jettySize=auto;html=1;exitX=0.5;exitY=1;exitDx=0;exitDy=0;entryX=0.5;entryY=0;entryDx=0;entryDy=0;fontSize=12;startSize=8;endSize=8;" edge="1" parent="1" source="rpjh0xaIXqAn6VRR7M-0-169" target="rpjh0xaIXqAn6VRR7M-0-158">
          <mxGeometry relative="1" as="geometry" />
        </mxCell>
        <mxCell id="rpjh0xaIXqAn6VRR7M-0-169" value="numero1 = 0" style="rounded=1;whiteSpace=wrap;html=1;absoluteArcSize=1;arcSize=14;strokeWidth=2;" vertex="1" parent="1">
          <mxGeometry x="1973.5" y="-82" width="77" height="77" as="geometry" />
        </mxCell>
        <mxCell id="rpjh0xaIXqAn6VRR7M-0-174" style="edgeStyle=none;curved=1;rounded=0;orthogonalLoop=1;jettySize=auto;html=1;exitX=1;exitY=0.5;exitDx=0;exitDy=0;entryX=1;entryY=0.5;entryDx=0;entryDy=0;fontSize=12;startSize=8;endSize=8;" edge="1" parent="1" source="rpjh0xaIXqAn6VRR7M-0-172" target="rpjh0xaIXqAn6VRR7M-0-167">
          <mxGeometry relative="1" as="geometry">
            <Array as="points">
              <mxPoint x="2188" y="316" />
            </Array>
          </mxGeometry>
        </mxCell>
        <mxCell id="rpjh0xaIXqAn6VRR7M-0-172" value="numero2 = numero2 + 1" style="rounded=1;whiteSpace=wrap;html=1;absoluteArcSize=1;arcSize=14;strokeWidth=2;" vertex="1" parent="1">
          <mxGeometry x="1973" y="498" width="70" height="70" as="geometry" />
        </mxCell>
        <mxCell id="rpjh0xaIXqAn6VRR7M-0-175" value="" style="rounded=0;whiteSpace=wrap;html=1;fillColor=#dae8fc;strokeColor=#6c8ebf;container=0;" vertex="1" parent="1">
          <mxGeometry x="127" y="618" width="370" height="461" as="geometry" />
        </mxCell>
        <mxCell id="rpjh0xaIXqAn6VRR7M-0-176" style="edgeStyle=none;curved=1;rounded=0;orthogonalLoop=1;jettySize=auto;html=1;exitX=1;exitY=0.5;exitDx=0;exitDy=0;exitPerimeter=0;entryX=1;entryY=0.5;entryDx=0;entryDy=0;fontSize=12;startSize=8;endSize=8;" edge="1" parent="1" source="rpjh0xaIXqAn6VRR7M-0-178" target="rpjh0xaIXqAn6VRR7M-0-191">
          <mxGeometry relative="1" as="geometry">
            <mxPoint x="348.6715999999999" y="1197.8399999999997" as="targetPoint" />
            <Array as="points">
              <mxPoint x="549" y="794" />
            </Array>
          </mxGeometry>
        </mxCell>
        <mxCell id="rpjh0xaIXqAn6VRR7M-0-203" value="false" style="edgeLabel;html=1;align=center;verticalAlign=middle;resizable=0;points=[];fontSize=12;" connectable="0" vertex="1" parent="rpjh0xaIXqAn6VRR7M-0-176">
          <mxGeometry x="-0.5709" y="5" relative="1" as="geometry">
            <mxPoint as="offset" />
          </mxGeometry>
        </mxCell>
        <mxCell id="rpjh0xaIXqAn6VRR7M-0-198" value="" style="edgeStyle=none;curved=1;rounded=0;orthogonalLoop=1;jettySize=auto;html=1;fontSize=12;startSize=8;endSize=8;" edge="1" parent="1" source="rpjh0xaIXqAn6VRR7M-0-178" target="rpjh0xaIXqAn6VRR7M-0-187">
          <mxGeometry relative="1" as="geometry" />
        </mxCell>
        <mxCell id="rpjh0xaIXqAn6VRR7M-0-199" value="true" style="edgeLabel;html=1;align=center;verticalAlign=middle;resizable=0;points=[];fontSize=12;" connectable="0" vertex="1" parent="rpjh0xaIXqAn6VRR7M-0-198">
          <mxGeometry x="-0.3525" y="1" relative="1" as="geometry">
            <mxPoint as="offset" />
          </mxGeometry>
        </mxCell>
        <mxCell id="rpjh0xaIXqAn6VRR7M-0-178" value="numero &amp;gt;= 10" style="strokeWidth=2;html=1;shape=mxgraph.flowchart.decision;whiteSpace=wrap;" vertex="1" parent="1">
          <mxGeometry x="306" y="969" width="100" height="100" as="geometry" />
        </mxCell>
        <mxCell id="rpjh0xaIXqAn6VRR7M-0-201" style="edgeStyle=none;curved=1;rounded=0;orthogonalLoop=1;jettySize=auto;html=1;exitX=0.5;exitY=1;exitDx=0;exitDy=0;exitPerimeter=0;entryX=0.5;entryY=0;entryDx=0;entryDy=0;fontSize=12;startSize=8;endSize=8;" edge="1" parent="1" source="rpjh0xaIXqAn6VRR7M-0-180" target="rpjh0xaIXqAn6VRR7M-0-191">
          <mxGeometry relative="1" as="geometry" />
        </mxCell>
        <mxCell id="rpjh0xaIXqAn6VRR7M-0-180" value="Início" style="strokeWidth=2;html=1;shape=mxgraph.flowchart.start_1;whiteSpace=wrap;" vertex="1" parent="1">
          <mxGeometry x="306" y="645" width="100" height="60" as="geometry" />
        </mxCell>
        <mxCell id="rpjh0xaIXqAn6VRR7M-0-182" value="Numero digitado" style="rounded=1;whiteSpace=wrap;html=1;absoluteArcSize=1;arcSize=14;strokeWidth=2;" vertex="1" parent="1">
          <mxGeometry x="317.5" y="870" width="77" height="77" as="geometry" />
        </mxCell>
        <mxCell id="rpjh0xaIXqAn6VRR7M-0-187" value="Fim" style="strokeWidth=2;html=1;shape=mxgraph.flowchart.terminator;whiteSpace=wrap;" vertex="1" parent="1">
          <mxGeometry x="163" y="997" width="100" height="60" as="geometry" />
        </mxCell>
        <mxCell id="rpjh0xaIXqAn6VRR7M-0-190" value="&lt;b style=&quot;forced-color-adjust: none; font-family: Helvetica; font-style: normal; font-variant-ligatures: normal; font-variant-caps: normal; letter-spacing: normal; orphans: 2; text-align: center; text-indent: 0px; text-transform: none; widows: 2; word-spacing: 0px; -webkit-text-stroke-width: 0px; white-space: normal; text-decoration-thickness: initial; text-decoration-style: initial; text-decoration-color: initial;&quot;&gt;6&lt;/b&gt;" style="text;whiteSpace=wrap;html=1;fontSize=100;labelBackgroundColor=#dae8fc;fontColor=#569bf5;" vertex="1" parent="1">
          <mxGeometry x="157" y="626" width="73" height="135" as="geometry" />
        </mxCell>
        <mxCell id="rpjh0xaIXqAn6VRR7M-0-191" value="" style="ellipse;whiteSpace=wrap;html=1;aspect=fixed;" vertex="1" parent="1">
          <mxGeometry x="341" y="726" width="30" height="30" as="geometry" />
        </mxCell>
        <mxCell id="rpjh0xaIXqAn6VRR7M-0-196" style="edgeStyle=none;curved=1;rounded=0;orthogonalLoop=1;jettySize=auto;html=1;exitX=0.5;exitY=1;exitDx=0;exitDy=0;entryX=0.5;entryY=0;entryDx=0;entryDy=0;fontSize=12;startSize=8;endSize=8;" edge="1" parent="1" source="rpjh0xaIXqAn6VRR7M-0-194" target="rpjh0xaIXqAn6VRR7M-0-182">
          <mxGeometry relative="1" as="geometry" />
        </mxCell>
        <mxCell id="rpjh0xaIXqAn6VRR7M-0-194" value="&lt;div&gt;Digite um número&amp;nbsp;&lt;/div&gt;&lt;div&gt;maior ou igual a dez&lt;/div&gt;" style="html=1;strokeWidth=2;shape=manualInput;whiteSpace=wrap;rounded=1;size=26;arcSize=11;" vertex="1" parent="1">
          <mxGeometry x="289.34000000000003" y="768" width="133.33" height="80" as="geometry" />
        </mxCell>
        <mxCell id="rpjh0xaIXqAn6VRR7M-0-202" style="edgeStyle=none;curved=1;rounded=0;orthogonalLoop=1;jettySize=auto;html=1;exitX=0.5;exitY=1;exitDx=0;exitDy=0;entryX=0.501;entryY=0.175;entryDx=0;entryDy=0;entryPerimeter=0;fontSize=12;startSize=8;endSize=8;" edge="1" parent="1" source="rpjh0xaIXqAn6VRR7M-0-191" target="rpjh0xaIXqAn6VRR7M-0-194">
          <mxGeometry relative="1" as="geometry" />
        </mxCell>
        <mxCell id="rpjh0xaIXqAn6VRR7M-0-204" style="edgeStyle=none;curved=1;rounded=0;orthogonalLoop=1;jettySize=auto;html=1;exitX=0.5;exitY=1;exitDx=0;exitDy=0;entryX=0.5;entryY=0;entryDx=0;entryDy=0;entryPerimeter=0;fontSize=12;startSize=8;endSize=8;" edge="1" parent="1" source="rpjh0xaIXqAn6VRR7M-0-182" target="rpjh0xaIXqAn6VRR7M-0-178">
          <mxGeometry relative="1" as="geometry" />
        </mxCell>
        <mxCell id="rpjh0xaIXqAn6VRR7M-0-205" value="" style="rounded=0;whiteSpace=wrap;html=1;fillColor=#dae8fc;strokeColor=#6c8ebf;container=0;" vertex="1" parent="1">
          <mxGeometry x="544" y="618" width="370" height="461" as="geometry" />
        </mxCell>
        <mxCell id="rpjh0xaIXqAn6VRR7M-0-206" style="edgeStyle=none;curved=1;rounded=0;orthogonalLoop=1;jettySize=auto;html=1;exitX=1;exitY=0.5;exitDx=0;exitDy=0;exitPerimeter=0;entryX=1;entryY=0.5;entryDx=0;entryDy=0;fontSize=12;startSize=8;endSize=8;" edge="1" parent="1" source="rpjh0xaIXqAn6VRR7M-0-210" target="rpjh0xaIXqAn6VRR7M-0-216">
          <mxGeometry relative="1" as="geometry">
            <mxPoint x="765.6715999999999" y="1197.8399999999997" as="targetPoint" />
            <Array as="points">
              <mxPoint x="966" y="794" />
            </Array>
          </mxGeometry>
        </mxCell>
        <mxCell id="rpjh0xaIXqAn6VRR7M-0-207" value="false" style="edgeLabel;html=1;align=center;verticalAlign=middle;resizable=0;points=[];fontSize=12;" connectable="0" vertex="1" parent="rpjh0xaIXqAn6VRR7M-0-206">
          <mxGeometry x="-0.5709" y="5" relative="1" as="geometry">
            <mxPoint as="offset" />
          </mxGeometry>
        </mxCell>
        <mxCell id="rpjh0xaIXqAn6VRR7M-0-208" value="" style="edgeStyle=none;curved=1;rounded=0;orthogonalLoop=1;jettySize=auto;html=1;fontSize=12;startSize=8;endSize=8;" edge="1" parent="1" source="rpjh0xaIXqAn6VRR7M-0-210" target="rpjh0xaIXqAn6VRR7M-0-214">
          <mxGeometry relative="1" as="geometry" />
        </mxCell>
        <mxCell id="rpjh0xaIXqAn6VRR7M-0-209" value="true" style="edgeLabel;html=1;align=center;verticalAlign=middle;resizable=0;points=[];fontSize=12;" connectable="0" vertex="1" parent="rpjh0xaIXqAn6VRR7M-0-208">
          <mxGeometry x="-0.3525" y="1" relative="1" as="geometry">
            <mxPoint as="offset" />
          </mxGeometry>
        </mxCell>
        <mxCell id="rpjh0xaIXqAn6VRR7M-0-210" value="numero &amp;gt; 1 ou numero &amp;lt; 5" style="strokeWidth=2;html=1;shape=mxgraph.flowchart.decision;whiteSpace=wrap;" vertex="1" parent="1">
          <mxGeometry x="723" y="969" width="100" height="100" as="geometry" />
        </mxCell>
        <mxCell id="rpjh0xaIXqAn6VRR7M-0-211" style="edgeStyle=none;curved=1;rounded=0;orthogonalLoop=1;jettySize=auto;html=1;exitX=0.5;exitY=1;exitDx=0;exitDy=0;exitPerimeter=0;entryX=0.5;entryY=0;entryDx=0;entryDy=0;fontSize=12;startSize=8;endSize=8;" edge="1" parent="1" source="rpjh0xaIXqAn6VRR7M-0-212" target="rpjh0xaIXqAn6VRR7M-0-216">
          <mxGeometry relative="1" as="geometry" />
        </mxCell>
        <mxCell id="rpjh0xaIXqAn6VRR7M-0-212" value="Início" style="strokeWidth=2;html=1;shape=mxgraph.flowchart.start_1;whiteSpace=wrap;" vertex="1" parent="1">
          <mxGeometry x="723" y="645" width="100" height="60" as="geometry" />
        </mxCell>
        <mxCell id="rpjh0xaIXqAn6VRR7M-0-213" value="Numero digitado" style="rounded=1;whiteSpace=wrap;html=1;absoluteArcSize=1;arcSize=14;strokeWidth=2;" vertex="1" parent="1">
          <mxGeometry x="734.5" y="870" width="77" height="77" as="geometry" />
        </mxCell>
        <mxCell id="rpjh0xaIXqAn6VRR7M-0-214" value="Fim" style="strokeWidth=2;html=1;shape=mxgraph.flowchart.terminator;whiteSpace=wrap;" vertex="1" parent="1">
          <mxGeometry x="580" y="997" width="100" height="60" as="geometry" />
        </mxCell>
        <mxCell id="rpjh0xaIXqAn6VRR7M-0-215" value="&lt;b style=&quot;forced-color-adjust: none; font-family: Helvetica; font-style: normal; font-variant-ligatures: normal; font-variant-caps: normal; letter-spacing: normal; orphans: 2; text-align: center; text-indent: 0px; text-transform: none; widows: 2; word-spacing: 0px; -webkit-text-stroke-width: 0px; white-space: normal; text-decoration-thickness: initial; text-decoration-style: initial; text-decoration-color: initial;&quot;&gt;7&lt;/b&gt;" style="text;whiteSpace=wrap;html=1;fontSize=100;labelBackgroundColor=#dae8fc;fontColor=#569bf5;" vertex="1" parent="1">
          <mxGeometry x="574" y="626" width="73" height="135" as="geometry" />
        </mxCell>
        <mxCell id="rpjh0xaIXqAn6VRR7M-0-216" value="" style="ellipse;whiteSpace=wrap;html=1;aspect=fixed;" vertex="1" parent="1">
          <mxGeometry x="758" y="726" width="30" height="30" as="geometry" />
        </mxCell>
        <mxCell id="rpjh0xaIXqAn6VRR7M-0-217" style="edgeStyle=none;curved=1;rounded=0;orthogonalLoop=1;jettySize=auto;html=1;exitX=0.5;exitY=1;exitDx=0;exitDy=0;entryX=0.5;entryY=0;entryDx=0;entryDy=0;fontSize=12;startSize=8;endSize=8;" edge="1" parent="1" source="rpjh0xaIXqAn6VRR7M-0-218" target="rpjh0xaIXqAn6VRR7M-0-213">
          <mxGeometry relative="1" as="geometry" />
        </mxCell>
        <mxCell id="rpjh0xaIXqAn6VRR7M-0-218" value="&lt;div&gt;Digite um número&amp;nbsp;&lt;/div&gt;&lt;div&gt;entre um e cinco&lt;/div&gt;" style="html=1;strokeWidth=2;shape=manualInput;whiteSpace=wrap;rounded=1;size=26;arcSize=11;" vertex="1" parent="1">
          <mxGeometry x="706.34" y="768" width="133.33" height="80" as="geometry" />
        </mxCell>
        <mxCell id="rpjh0xaIXqAn6VRR7M-0-219" style="edgeStyle=none;curved=1;rounded=0;orthogonalLoop=1;jettySize=auto;html=1;exitX=0.5;exitY=1;exitDx=0;exitDy=0;entryX=0.501;entryY=0.175;entryDx=0;entryDy=0;entryPerimeter=0;fontSize=12;startSize=8;endSize=8;" edge="1" parent="1" source="rpjh0xaIXqAn6VRR7M-0-216" target="rpjh0xaIXqAn6VRR7M-0-218">
          <mxGeometry relative="1" as="geometry" />
        </mxCell>
        <mxCell id="rpjh0xaIXqAn6VRR7M-0-220" style="edgeStyle=none;curved=1;rounded=0;orthogonalLoop=1;jettySize=auto;html=1;exitX=0.5;exitY=1;exitDx=0;exitDy=0;entryX=0.5;entryY=0;entryDx=0;entryDy=0;entryPerimeter=0;fontSize=12;startSize=8;endSize=8;" edge="1" parent="1" source="rpjh0xaIXqAn6VRR7M-0-213" target="rpjh0xaIXqAn6VRR7M-0-210">
          <mxGeometry relative="1" as="geometry" />
        </mxCell>
        <mxCell id="rpjh0xaIXqAn6VRR7M-0-221" value="" style="rounded=0;whiteSpace=wrap;html=1;fillColor=#dae8fc;strokeColor=#6c8ebf;container=0;" vertex="1" parent="1">
          <mxGeometry x="962" y="618" width="370" height="461" as="geometry" />
        </mxCell>
        <mxCell id="rpjh0xaIXqAn6VRR7M-0-223" value="" style="edgeStyle=none;curved=1;rounded=0;orthogonalLoop=1;jettySize=auto;html=1;fontSize=12;startSize=8;endSize=8;" edge="1" parent="1" source="rpjh0xaIXqAn6VRR7M-0-225" target="rpjh0xaIXqAn6VRR7M-0-229">
          <mxGeometry relative="1" as="geometry" />
        </mxCell>
        <mxCell id="rpjh0xaIXqAn6VRR7M-0-224" value="true" style="edgeLabel;html=1;align=center;verticalAlign=middle;resizable=0;points=[];fontSize=12;" connectable="0" vertex="1" parent="rpjh0xaIXqAn6VRR7M-0-223">
          <mxGeometry x="-0.3525" y="1" relative="1" as="geometry">
            <mxPoint as="offset" />
          </mxGeometry>
        </mxCell>
        <mxCell id="rpjh0xaIXqAn6VRR7M-0-236" style="edgeStyle=none;curved=1;rounded=0;orthogonalLoop=1;jettySize=auto;html=1;exitX=1;exitY=0.5;exitDx=0;exitDy=0;exitPerimeter=0;entryX=1;entryY=0.5;entryDx=0;entryDy=0;fontSize=12;startSize=8;endSize=8;" edge="1" parent="1" source="rpjh0xaIXqAn6VRR7M-0-225" target="rpjh0xaIXqAn6VRR7M-0-231">
          <mxGeometry relative="1" as="geometry">
            <Array as="points">
              <mxPoint x="1330" y="737" />
            </Array>
          </mxGeometry>
        </mxCell>
        <mxCell id="AYvvCMOeSBzEq_zFJETF-52" value="false" style="edgeLabel;html=1;align=center;verticalAlign=middle;resizable=0;points=[];fontSize=12;" connectable="0" vertex="1" parent="rpjh0xaIXqAn6VRR7M-0-236">
          <mxGeometry x="-0.2845" y="5" relative="1" as="geometry">
            <mxPoint as="offset" />
          </mxGeometry>
        </mxCell>
        <mxCell id="rpjh0xaIXqAn6VRR7M-0-225" value="numero &amp;lt; 0&amp;nbsp;" style="strokeWidth=2;html=1;shape=mxgraph.flowchart.decision;whiteSpace=wrap;" vertex="1" parent="1">
          <mxGeometry x="1141" y="969" width="100" height="100" as="geometry" />
        </mxCell>
        <mxCell id="rpjh0xaIXqAn6VRR7M-0-226" style="edgeStyle=none;curved=1;rounded=0;orthogonalLoop=1;jettySize=auto;html=1;exitX=0.5;exitY=1;exitDx=0;exitDy=0;exitPerimeter=0;entryX=0.5;entryY=0;entryDx=0;entryDy=0;fontSize=12;startSize=8;endSize=8;" edge="1" parent="1" source="rpjh0xaIXqAn6VRR7M-0-227" target="rpjh0xaIXqAn6VRR7M-0-231">
          <mxGeometry relative="1" as="geometry" />
        </mxCell>
        <mxCell id="rpjh0xaIXqAn6VRR7M-0-227" value="Início" style="strokeWidth=2;html=1;shape=mxgraph.flowchart.start_1;whiteSpace=wrap;" vertex="1" parent="1">
          <mxGeometry x="1141" y="645" width="100" height="60" as="geometry" />
        </mxCell>
        <mxCell id="rpjh0xaIXqAn6VRR7M-0-228" value="Numero digitado" style="rounded=1;whiteSpace=wrap;html=1;absoluteArcSize=1;arcSize=14;strokeWidth=2;" vertex="1" parent="1">
          <mxGeometry x="1152.5" y="870" width="77" height="77" as="geometry" />
        </mxCell>
        <mxCell id="rpjh0xaIXqAn6VRR7M-0-229" value="Fim" style="strokeWidth=2;html=1;shape=mxgraph.flowchart.terminator;whiteSpace=wrap;" vertex="1" parent="1">
          <mxGeometry x="998" y="997" width="100" height="60" as="geometry" />
        </mxCell>
        <mxCell id="rpjh0xaIXqAn6VRR7M-0-230" value="&lt;b style=&quot;forced-color-adjust: none; font-family: Helvetica; font-style: normal; font-variant-ligatures: normal; font-variant-caps: normal; letter-spacing: normal; orphans: 2; text-align: center; text-indent: 0px; text-transform: none; widows: 2; word-spacing: 0px; -webkit-text-stroke-width: 0px; white-space: normal; text-decoration-thickness: initial; text-decoration-style: initial; text-decoration-color: initial;&quot;&gt;8&lt;/b&gt;" style="text;whiteSpace=wrap;html=1;fontSize=100;labelBackgroundColor=#dae8fc;fontColor=#569bf5;" vertex="1" parent="1">
          <mxGeometry x="992" y="626" width="73" height="135" as="geometry" />
        </mxCell>
        <mxCell id="rpjh0xaIXqAn6VRR7M-0-231" value="" style="ellipse;whiteSpace=wrap;html=1;aspect=fixed;" vertex="1" parent="1">
          <mxGeometry x="1176" y="726" width="30" height="30" as="geometry" />
        </mxCell>
        <mxCell id="rpjh0xaIXqAn6VRR7M-0-232" style="edgeStyle=none;curved=1;rounded=0;orthogonalLoop=1;jettySize=auto;html=1;exitX=0.5;exitY=1;exitDx=0;exitDy=0;entryX=0.5;entryY=0;entryDx=0;entryDy=0;fontSize=12;startSize=8;endSize=8;" edge="1" parent="1" source="rpjh0xaIXqAn6VRR7M-0-233" target="rpjh0xaIXqAn6VRR7M-0-228">
          <mxGeometry relative="1" as="geometry" />
        </mxCell>
        <mxCell id="rpjh0xaIXqAn6VRR7M-0-233" value="&lt;div&gt;Digite um número&amp;nbsp;&lt;/div&gt;&lt;div&gt;negativo&lt;/div&gt;" style="html=1;strokeWidth=2;shape=manualInput;whiteSpace=wrap;rounded=1;size=26;arcSize=11;" vertex="1" parent="1">
          <mxGeometry x="1124.3400000000001" y="768" width="133.33" height="80" as="geometry" />
        </mxCell>
        <mxCell id="rpjh0xaIXqAn6VRR7M-0-234" style="edgeStyle=none;curved=1;rounded=0;orthogonalLoop=1;jettySize=auto;html=1;exitX=0.5;exitY=1;exitDx=0;exitDy=0;entryX=0.501;entryY=0.175;entryDx=0;entryDy=0;entryPerimeter=0;fontSize=12;startSize=8;endSize=8;" edge="1" parent="1" source="rpjh0xaIXqAn6VRR7M-0-231" target="rpjh0xaIXqAn6VRR7M-0-233">
          <mxGeometry relative="1" as="geometry" />
        </mxCell>
        <mxCell id="rpjh0xaIXqAn6VRR7M-0-235" style="edgeStyle=none;curved=1;rounded=0;orthogonalLoop=1;jettySize=auto;html=1;exitX=0.5;exitY=1;exitDx=0;exitDy=0;entryX=0.5;entryY=0;entryDx=0;entryDy=0;entryPerimeter=0;fontSize=12;startSize=8;endSize=8;" edge="1" parent="1" source="rpjh0xaIXqAn6VRR7M-0-228" target="rpjh0xaIXqAn6VRR7M-0-225">
          <mxGeometry relative="1" as="geometry" />
        </mxCell>
        <mxCell id="rpjh0xaIXqAn6VRR7M-0-255" value="" style="rounded=0;whiteSpace=wrap;html=1;fillColor=#d5e8d4;strokeColor=#82b366;container=0;" vertex="1" parent="1">
          <mxGeometry x="1378" y="618" width="370" height="590" as="geometry" />
        </mxCell>
        <mxCell id="rpjh0xaIXqAn6VRR7M-0-256" style="edgeStyle=none;curved=1;rounded=0;orthogonalLoop=1;jettySize=auto;html=1;exitX=0.5;exitY=1;exitDx=0;exitDy=0;exitPerimeter=0;entryX=0.52;entryY=0.123;entryDx=0;entryDy=0;fontSize=12;startSize=8;endSize=8;entryPerimeter=0;" edge="1" parent="1" source="rpjh0xaIXqAn6VRR7M-0-258" target="rpjh0xaIXqAn6VRR7M-0-264">
          <mxGeometry relative="1" as="geometry">
            <mxPoint x="1576.5" y="1140" as="targetPoint" />
          </mxGeometry>
        </mxCell>
        <mxCell id="rpjh0xaIXqAn6VRR7M-0-257" value="true" style="edgeLabel;html=1;align=center;verticalAlign=middle;resizable=0;points=[];fontSize=12;" connectable="0" vertex="1" parent="rpjh0xaIXqAn6VRR7M-0-256">
          <mxGeometry x="-0.0865" y="-1" relative="1" as="geometry">
            <mxPoint as="offset" />
          </mxGeometry>
        </mxCell>
        <mxCell id="rpjh0xaIXqAn6VRR7M-0-258" value="numero &amp;lt;= 10" style="strokeWidth=2;html=1;shape=mxgraph.flowchart.decision;whiteSpace=wrap;" vertex="1" parent="1">
          <mxGeometry x="1557" y="871" width="100" height="100" as="geometry" />
        </mxCell>
        <mxCell id="rpjh0xaIXqAn6VRR7M-0-259" style="edgeStyle=none;curved=1;rounded=0;orthogonalLoop=1;jettySize=auto;html=1;exitX=0.5;exitY=1;exitDx=0;exitDy=0;exitPerimeter=0;entryX=0.5;entryY=0;entryDx=0;entryDy=0;fontSize=12;startSize=8;endSize=8;" edge="1" parent="1" source="rpjh0xaIXqAn6VRR7M-0-260" target="rpjh0xaIXqAn6VRR7M-0-262">
          <mxGeometry relative="1" as="geometry" />
        </mxCell>
        <mxCell id="rpjh0xaIXqAn6VRR7M-0-260" value="Início" style="strokeWidth=2;html=1;shape=mxgraph.flowchart.start_1;whiteSpace=wrap;" vertex="1" parent="1">
          <mxGeometry x="1557" y="645" width="100" height="60" as="geometry" />
        </mxCell>
        <mxCell id="rpjh0xaIXqAn6VRR7M-0-261" style="edgeStyle=none;curved=1;rounded=0;orthogonalLoop=1;jettySize=auto;html=1;exitX=0.5;exitY=1;exitDx=0;exitDy=0;entryX=0.5;entryY=0;entryDx=0;entryDy=0;fontSize=12;startSize=8;endSize=8;" edge="1" parent="1" source="rpjh0xaIXqAn6VRR7M-0-262" target="rpjh0xaIXqAn6VRR7M-0-270">
          <mxGeometry relative="1" as="geometry" />
        </mxCell>
        <mxCell id="rpjh0xaIXqAn6VRR7M-0-262" value="numero = 1" style="rounded=1;whiteSpace=wrap;html=1;absoluteArcSize=1;arcSize=14;strokeWidth=2;" vertex="1" parent="1">
          <mxGeometry x="1568.5" y="725" width="77" height="77" as="geometry" />
        </mxCell>
        <mxCell id="rpjh0xaIXqAn6VRR7M-0-263" style="edgeStyle=none;curved=1;rounded=0;orthogonalLoop=1;jettySize=auto;html=1;exitX=0.5;exitY=1;exitDx=0;exitDy=0;entryX=0.5;entryY=0;entryDx=0;entryDy=0;fontSize=12;startSize=8;endSize=8;" edge="1" parent="1" source="rpjh0xaIXqAn6VRR7M-0-264" target="rpjh0xaIXqAn6VRR7M-0-265">
          <mxGeometry relative="1" as="geometry" />
        </mxCell>
        <mxCell id="rpjh0xaIXqAn6VRR7M-0-264" value="&lt;div&gt;numero&lt;/div&gt;" style="html=1;strokeWidth=2;shape=manualInput;whiteSpace=wrap;rounded=1;size=26;arcSize=11;" vertex="1" parent="1">
          <mxGeometry x="1536.34" y="1007" width="133.33" height="80" as="geometry" />
        </mxCell>
        <mxCell id="rpjh0xaIXqAn6VRR7M-0-272" style="edgeStyle=none;curved=1;rounded=0;orthogonalLoop=1;jettySize=auto;html=1;exitX=1;exitY=0.5;exitDx=0;exitDy=0;entryX=1;entryY=0.5;entryDx=0;entryDy=0;fontSize=12;startSize=8;endSize=8;" edge="1" parent="1" source="rpjh0xaIXqAn6VRR7M-0-265" target="rpjh0xaIXqAn6VRR7M-0-270">
          <mxGeometry relative="1" as="geometry">
            <Array as="points">
              <mxPoint x="1765" y="1005" />
            </Array>
          </mxGeometry>
        </mxCell>
        <mxCell id="rpjh0xaIXqAn6VRR7M-0-265" value="numero + 1" style="rounded=1;whiteSpace=wrap;html=1;absoluteArcSize=1;arcSize=14;strokeWidth=2;" vertex="1" parent="1">
          <mxGeometry x="1568" y="1117" width="70" height="70" as="geometry" />
        </mxCell>
        <mxCell id="rpjh0xaIXqAn6VRR7M-0-266" value="Fim" style="strokeWidth=2;html=1;shape=mxgraph.flowchart.terminator;whiteSpace=wrap;" vertex="1" parent="1">
          <mxGeometry x="1414" y="899" width="100" height="60" as="geometry" />
        </mxCell>
        <mxCell id="rpjh0xaIXqAn6VRR7M-0-267" style="edgeStyle=none;curved=1;rounded=0;orthogonalLoop=1;jettySize=auto;html=1;exitX=0;exitY=0.5;exitDx=0;exitDy=0;exitPerimeter=0;entryX=1;entryY=0.5;entryDx=0;entryDy=0;entryPerimeter=0;fontSize=12;startSize=8;endSize=8;" edge="1" parent="1" source="rpjh0xaIXqAn6VRR7M-0-258" target="rpjh0xaIXqAn6VRR7M-0-266">
          <mxGeometry relative="1" as="geometry" />
        </mxCell>
        <mxCell id="rpjh0xaIXqAn6VRR7M-0-268" value="false" style="edgeLabel;html=1;align=center;verticalAlign=middle;resizable=0;points=[];fontSize=12;" connectable="0" vertex="1" parent="rpjh0xaIXqAn6VRR7M-0-267">
          <mxGeometry x="-0.1253" y="4" relative="1" as="geometry">
            <mxPoint as="offset" />
          </mxGeometry>
        </mxCell>
        <mxCell id="rpjh0xaIXqAn6VRR7M-0-269" value="&lt;b style=&quot;forced-color-adjust: none; font-family: Helvetica; font-style: normal; font-variant-ligatures: normal; font-variant-caps: normal; letter-spacing: normal; orphans: 2; text-align: center; text-indent: 0px; text-transform: none; widows: 2; word-spacing: 0px; -webkit-text-stroke-width: 0px; white-space: normal; text-decoration-thickness: initial; text-decoration-style: initial; text-decoration-color: initial;&quot;&gt;9&lt;/b&gt;" style="text;whiteSpace=wrap;html=1;fontSize=100;labelBackgroundColor=#d5e8d4;fontColor=#739970;" vertex="1" parent="1">
          <mxGeometry x="1408" y="626" width="73" height="135" as="geometry" />
        </mxCell>
        <mxCell id="rpjh0xaIXqAn6VRR7M-0-270" value="" style="ellipse;whiteSpace=wrap;html=1;aspect=fixed;" vertex="1" parent="1">
          <mxGeometry x="1592" y="823" width="30" height="30" as="geometry" />
        </mxCell>
        <mxCell id="rpjh0xaIXqAn6VRR7M-0-271" style="edgeStyle=none;curved=1;rounded=0;orthogonalLoop=1;jettySize=auto;html=1;exitX=0.5;exitY=1;exitDx=0;exitDy=0;entryX=0.5;entryY=0;entryDx=0;entryDy=0;entryPerimeter=0;fontSize=12;startSize=8;endSize=8;" edge="1" parent="1" source="rpjh0xaIXqAn6VRR7M-0-270" target="rpjh0xaIXqAn6VRR7M-0-258">
          <mxGeometry relative="1" as="geometry" />
        </mxCell>
        <mxCell id="rpjh0xaIXqAn6VRR7M-0-273" value="" style="rounded=0;whiteSpace=wrap;html=1;fillColor=#d5e8d4;strokeColor=#82b366;container=0;" vertex="1" parent="1">
          <mxGeometry x="1783" y="626" width="370" height="590" as="geometry" />
        </mxCell>
        <mxCell id="rpjh0xaIXqAn6VRR7M-0-274" style="edgeStyle=none;curved=1;rounded=0;orthogonalLoop=1;jettySize=auto;html=1;exitX=0.5;exitY=1;exitDx=0;exitDy=0;exitPerimeter=0;entryX=0.52;entryY=0.123;entryDx=0;entryDy=0;fontSize=12;startSize=8;endSize=8;entryPerimeter=0;" edge="1" parent="1" source="rpjh0xaIXqAn6VRR7M-0-276" target="rpjh0xaIXqAn6VRR7M-0-282">
          <mxGeometry relative="1" as="geometry">
            <mxPoint x="1981.5" y="1148" as="targetPoint" />
          </mxGeometry>
        </mxCell>
        <mxCell id="rpjh0xaIXqAn6VRR7M-0-275" value="true" style="edgeLabel;html=1;align=center;verticalAlign=middle;resizable=0;points=[];fontSize=12;" connectable="0" vertex="1" parent="rpjh0xaIXqAn6VRR7M-0-274">
          <mxGeometry x="-0.0865" y="-1" relative="1" as="geometry">
            <mxPoint as="offset" />
          </mxGeometry>
        </mxCell>
        <mxCell id="rpjh0xaIXqAn6VRR7M-0-276" value="numero &amp;lt;= 20" style="strokeWidth=2;html=1;shape=mxgraph.flowchart.decision;whiteSpace=wrap;" vertex="1" parent="1">
          <mxGeometry x="1962" y="879" width="100" height="100" as="geometry" />
        </mxCell>
        <mxCell id="rpjh0xaIXqAn6VRR7M-0-277" style="edgeStyle=none;curved=1;rounded=0;orthogonalLoop=1;jettySize=auto;html=1;exitX=0.5;exitY=1;exitDx=0;exitDy=0;exitPerimeter=0;entryX=0.5;entryY=0;entryDx=0;entryDy=0;fontSize=12;startSize=8;endSize=8;" edge="1" parent="1" source="rpjh0xaIXqAn6VRR7M-0-278" target="rpjh0xaIXqAn6VRR7M-0-280">
          <mxGeometry relative="1" as="geometry" />
        </mxCell>
        <mxCell id="rpjh0xaIXqAn6VRR7M-0-278" value="Início" style="strokeWidth=2;html=1;shape=mxgraph.flowchart.start_1;whiteSpace=wrap;" vertex="1" parent="1">
          <mxGeometry x="1962" y="653" width="100" height="60" as="geometry" />
        </mxCell>
        <mxCell id="rpjh0xaIXqAn6VRR7M-0-279" style="edgeStyle=none;curved=1;rounded=0;orthogonalLoop=1;jettySize=auto;html=1;exitX=0.5;exitY=1;exitDx=0;exitDy=0;entryX=0.5;entryY=0;entryDx=0;entryDy=0;fontSize=12;startSize=8;endSize=8;" edge="1" parent="1" source="rpjh0xaIXqAn6VRR7M-0-280" target="rpjh0xaIXqAn6VRR7M-0-289">
          <mxGeometry relative="1" as="geometry" />
        </mxCell>
        <mxCell id="rpjh0xaIXqAn6VRR7M-0-280" value="numero = 1" style="rounded=1;whiteSpace=wrap;html=1;absoluteArcSize=1;arcSize=14;strokeWidth=2;" vertex="1" parent="1">
          <mxGeometry x="1973.5" y="733" width="77" height="77" as="geometry" />
        </mxCell>
        <mxCell id="rpjh0xaIXqAn6VRR7M-0-281" style="edgeStyle=none;curved=1;rounded=0;orthogonalLoop=1;jettySize=auto;html=1;exitX=0.5;exitY=1;exitDx=0;exitDy=0;entryX=0.5;entryY=0;entryDx=0;entryDy=0;fontSize=12;startSize=8;endSize=8;" edge="1" parent="1" source="rpjh0xaIXqAn6VRR7M-0-282" target="rpjh0xaIXqAn6VRR7M-0-284">
          <mxGeometry relative="1" as="geometry" />
        </mxCell>
        <mxCell id="rpjh0xaIXqAn6VRR7M-0-282" value="&lt;div&gt;numero&lt;/div&gt;" style="html=1;strokeWidth=2;shape=manualInput;whiteSpace=wrap;rounded=1;size=26;arcSize=11;" vertex="1" parent="1">
          <mxGeometry x="1941.34" y="1015" width="133.33" height="80" as="geometry" />
        </mxCell>
        <mxCell id="rpjh0xaIXqAn6VRR7M-0-283" style="edgeStyle=none;curved=1;rounded=0;orthogonalLoop=1;jettySize=auto;html=1;exitX=1;exitY=0.5;exitDx=0;exitDy=0;entryX=1;entryY=0.5;entryDx=0;entryDy=0;fontSize=12;startSize=8;endSize=8;" edge="1" parent="1" source="rpjh0xaIXqAn6VRR7M-0-284" target="rpjh0xaIXqAn6VRR7M-0-289">
          <mxGeometry relative="1" as="geometry">
            <Array as="points">
              <mxPoint x="2170" y="1013" />
            </Array>
          </mxGeometry>
        </mxCell>
        <mxCell id="rpjh0xaIXqAn6VRR7M-0-284" value="numero + 2" style="rounded=1;whiteSpace=wrap;html=1;absoluteArcSize=1;arcSize=14;strokeWidth=2;" vertex="1" parent="1">
          <mxGeometry x="1973" y="1125" width="70" height="70" as="geometry" />
        </mxCell>
        <mxCell id="rpjh0xaIXqAn6VRR7M-0-285" value="Fim" style="strokeWidth=2;html=1;shape=mxgraph.flowchart.terminator;whiteSpace=wrap;" vertex="1" parent="1">
          <mxGeometry x="1819" y="907" width="100" height="60" as="geometry" />
        </mxCell>
        <mxCell id="rpjh0xaIXqAn6VRR7M-0-286" style="edgeStyle=none;curved=1;rounded=0;orthogonalLoop=1;jettySize=auto;html=1;exitX=0;exitY=0.5;exitDx=0;exitDy=0;exitPerimeter=0;entryX=1;entryY=0.5;entryDx=0;entryDy=0;entryPerimeter=0;fontSize=12;startSize=8;endSize=8;" edge="1" parent="1" source="rpjh0xaIXqAn6VRR7M-0-276" target="rpjh0xaIXqAn6VRR7M-0-285">
          <mxGeometry relative="1" as="geometry" />
        </mxCell>
        <mxCell id="rpjh0xaIXqAn6VRR7M-0-287" value="false" style="edgeLabel;html=1;align=center;verticalAlign=middle;resizable=0;points=[];fontSize=12;" connectable="0" vertex="1" parent="rpjh0xaIXqAn6VRR7M-0-286">
          <mxGeometry x="-0.1253" y="4" relative="1" as="geometry">
            <mxPoint as="offset" />
          </mxGeometry>
        </mxCell>
        <mxCell id="rpjh0xaIXqAn6VRR7M-0-288" value="&lt;b style=&quot;forced-color-adjust: none; font-family: Helvetica; font-style: normal; font-variant-ligatures: normal; font-variant-caps: normal; letter-spacing: normal; orphans: 2; text-align: center; text-indent: 0px; text-transform: none; widows: 2; word-spacing: 0px; -webkit-text-stroke-width: 0px; white-space: normal; text-decoration-thickness: initial; text-decoration-style: initial; text-decoration-color: initial;&quot;&gt;10&lt;/b&gt;" style="text;whiteSpace=wrap;html=1;fontSize=100;labelBackgroundColor=#d5e8d4;fontColor=#739970;" vertex="1" parent="1">
          <mxGeometry x="1813" y="634" width="73" height="135" as="geometry" />
        </mxCell>
        <mxCell id="rpjh0xaIXqAn6VRR7M-0-289" value="" style="ellipse;whiteSpace=wrap;html=1;aspect=fixed;" vertex="1" parent="1">
          <mxGeometry x="1997" y="831" width="30" height="30" as="geometry" />
        </mxCell>
        <mxCell id="rpjh0xaIXqAn6VRR7M-0-290" style="edgeStyle=none;curved=1;rounded=0;orthogonalLoop=1;jettySize=auto;html=1;exitX=0.5;exitY=1;exitDx=0;exitDy=0;entryX=0.5;entryY=0;entryDx=0;entryDy=0;entryPerimeter=0;fontSize=12;startSize=8;endSize=8;" edge="1" parent="1" source="rpjh0xaIXqAn6VRR7M-0-289" target="rpjh0xaIXqAn6VRR7M-0-276">
          <mxGeometry relative="1" as="geometry" />
        </mxCell>
        <mxCell id="rpjh0xaIXqAn6VRR7M-0-291" value="" style="rounded=0;whiteSpace=wrap;html=1;fillColor=#d5e8d4;strokeColor=#82b366;container=0;" vertex="1" parent="1">
          <mxGeometry x="127" y="1267" width="370" height="590" as="geometry" />
        </mxCell>
        <mxCell id="rpjh0xaIXqAn6VRR7M-0-292" style="edgeStyle=none;curved=1;rounded=0;orthogonalLoop=1;jettySize=auto;html=1;exitX=0.5;exitY=1;exitDx=0;exitDy=0;exitPerimeter=0;entryX=0.52;entryY=0.123;entryDx=0;entryDy=0;fontSize=12;startSize=8;endSize=8;entryPerimeter=0;" edge="1" parent="1" source="rpjh0xaIXqAn6VRR7M-0-294" target="rpjh0xaIXqAn6VRR7M-0-300">
          <mxGeometry relative="1" as="geometry">
            <mxPoint x="325.5" y="1789" as="targetPoint" />
          </mxGeometry>
        </mxCell>
        <mxCell id="rpjh0xaIXqAn6VRR7M-0-293" value="true" style="edgeLabel;html=1;align=center;verticalAlign=middle;resizable=0;points=[];fontSize=12;" connectable="0" vertex="1" parent="rpjh0xaIXqAn6VRR7M-0-292">
          <mxGeometry x="-0.0865" y="-1" relative="1" as="geometry">
            <mxPoint as="offset" />
          </mxGeometry>
        </mxCell>
        <mxCell id="rpjh0xaIXqAn6VRR7M-0-294" value="numero &amp;gt;= 1" style="strokeWidth=2;html=1;shape=mxgraph.flowchart.decision;whiteSpace=wrap;" vertex="1" parent="1">
          <mxGeometry x="306" y="1520" width="100" height="100" as="geometry" />
        </mxCell>
        <mxCell id="rpjh0xaIXqAn6VRR7M-0-295" style="edgeStyle=none;curved=1;rounded=0;orthogonalLoop=1;jettySize=auto;html=1;exitX=0.5;exitY=1;exitDx=0;exitDy=0;exitPerimeter=0;entryX=0.5;entryY=0;entryDx=0;entryDy=0;fontSize=12;startSize=8;endSize=8;" edge="1" parent="1" source="rpjh0xaIXqAn6VRR7M-0-296" target="rpjh0xaIXqAn6VRR7M-0-298">
          <mxGeometry relative="1" as="geometry" />
        </mxCell>
        <mxCell id="rpjh0xaIXqAn6VRR7M-0-296" value="Início" style="strokeWidth=2;html=1;shape=mxgraph.flowchart.start_1;whiteSpace=wrap;" vertex="1" parent="1">
          <mxGeometry x="306" y="1294" width="100" height="60" as="geometry" />
        </mxCell>
        <mxCell id="rpjh0xaIXqAn6VRR7M-0-297" style="edgeStyle=none;curved=1;rounded=0;orthogonalLoop=1;jettySize=auto;html=1;exitX=0.5;exitY=1;exitDx=0;exitDy=0;entryX=0.5;entryY=0;entryDx=0;entryDy=0;fontSize=12;startSize=8;endSize=8;" edge="1" parent="1" source="rpjh0xaIXqAn6VRR7M-0-298" target="rpjh0xaIXqAn6VRR7M-0-307">
          <mxGeometry relative="1" as="geometry" />
        </mxCell>
        <mxCell id="rpjh0xaIXqAn6VRR7M-0-298" value="numero = 10" style="rounded=1;whiteSpace=wrap;html=1;absoluteArcSize=1;arcSize=14;strokeWidth=2;" vertex="1" parent="1">
          <mxGeometry x="317.5" y="1374" width="77" height="77" as="geometry" />
        </mxCell>
        <mxCell id="rpjh0xaIXqAn6VRR7M-0-299" style="edgeStyle=none;curved=1;rounded=0;orthogonalLoop=1;jettySize=auto;html=1;exitX=0.5;exitY=1;exitDx=0;exitDy=0;entryX=0.5;entryY=0;entryDx=0;entryDy=0;fontSize=12;startSize=8;endSize=8;" edge="1" parent="1" source="rpjh0xaIXqAn6VRR7M-0-300" target="rpjh0xaIXqAn6VRR7M-0-302">
          <mxGeometry relative="1" as="geometry" />
        </mxCell>
        <mxCell id="rpjh0xaIXqAn6VRR7M-0-300" value="&lt;div&gt;numero&lt;/div&gt;" style="html=1;strokeWidth=2;shape=manualInput;whiteSpace=wrap;rounded=1;size=26;arcSize=11;" vertex="1" parent="1">
          <mxGeometry x="285.3399999999999" y="1656" width="133.33" height="80" as="geometry" />
        </mxCell>
        <mxCell id="rpjh0xaIXqAn6VRR7M-0-301" style="edgeStyle=none;curved=1;rounded=0;orthogonalLoop=1;jettySize=auto;html=1;exitX=1;exitY=0.5;exitDx=0;exitDy=0;entryX=1;entryY=0.5;entryDx=0;entryDy=0;fontSize=12;startSize=8;endSize=8;" edge="1" parent="1" source="rpjh0xaIXqAn6VRR7M-0-302" target="rpjh0xaIXqAn6VRR7M-0-307">
          <mxGeometry relative="1" as="geometry">
            <Array as="points">
              <mxPoint x="514" y="1654" />
            </Array>
          </mxGeometry>
        </mxCell>
        <mxCell id="rpjh0xaIXqAn6VRR7M-0-302" value="numero - 1" style="rounded=1;whiteSpace=wrap;html=1;absoluteArcSize=1;arcSize=14;strokeWidth=2;" vertex="1" parent="1">
          <mxGeometry x="317" y="1766" width="70" height="70" as="geometry" />
        </mxCell>
        <mxCell id="rpjh0xaIXqAn6VRR7M-0-303" value="Fim" style="strokeWidth=2;html=1;shape=mxgraph.flowchart.terminator;whiteSpace=wrap;" vertex="1" parent="1">
          <mxGeometry x="163" y="1548" width="100" height="60" as="geometry" />
        </mxCell>
        <mxCell id="rpjh0xaIXqAn6VRR7M-0-304" style="edgeStyle=none;curved=1;rounded=0;orthogonalLoop=1;jettySize=auto;html=1;exitX=0;exitY=0.5;exitDx=0;exitDy=0;exitPerimeter=0;entryX=1;entryY=0.5;entryDx=0;entryDy=0;entryPerimeter=0;fontSize=12;startSize=8;endSize=8;" edge="1" parent="1" source="rpjh0xaIXqAn6VRR7M-0-294" target="rpjh0xaIXqAn6VRR7M-0-303">
          <mxGeometry relative="1" as="geometry" />
        </mxCell>
        <mxCell id="rpjh0xaIXqAn6VRR7M-0-305" value="false" style="edgeLabel;html=1;align=center;verticalAlign=middle;resizable=0;points=[];fontSize=12;" connectable="0" vertex="1" parent="rpjh0xaIXqAn6VRR7M-0-304">
          <mxGeometry x="-0.1253" y="4" relative="1" as="geometry">
            <mxPoint as="offset" />
          </mxGeometry>
        </mxCell>
        <mxCell id="rpjh0xaIXqAn6VRR7M-0-306" value="&lt;b style=&quot;forced-color-adjust: none; font-family: Helvetica; font-style: normal; font-variant-ligatures: normal; font-variant-caps: normal; letter-spacing: normal; orphans: 2; text-align: center; text-indent: 0px; text-transform: none; widows: 2; word-spacing: 0px; -webkit-text-stroke-width: 0px; white-space: normal; text-decoration-thickness: initial; text-decoration-style: initial; text-decoration-color: initial;&quot;&gt;11&lt;/b&gt;" style="text;whiteSpace=wrap;html=1;fontSize=100;labelBackgroundColor=#d5e8d4;fontColor=#739970;" vertex="1" parent="1">
          <mxGeometry x="157" y="1275" width="73" height="135" as="geometry" />
        </mxCell>
        <mxCell id="rpjh0xaIXqAn6VRR7M-0-307" value="" style="ellipse;whiteSpace=wrap;html=1;aspect=fixed;" vertex="1" parent="1">
          <mxGeometry x="341" y="1472" width="30" height="30" as="geometry" />
        </mxCell>
        <mxCell id="rpjh0xaIXqAn6VRR7M-0-308" style="edgeStyle=none;curved=1;rounded=0;orthogonalLoop=1;jettySize=auto;html=1;exitX=0.5;exitY=1;exitDx=0;exitDy=0;entryX=0.5;entryY=0;entryDx=0;entryDy=0;entryPerimeter=0;fontSize=12;startSize=8;endSize=8;" edge="1" parent="1" source="rpjh0xaIXqAn6VRR7M-0-307" target="rpjh0xaIXqAn6VRR7M-0-294">
          <mxGeometry relative="1" as="geometry" />
        </mxCell>
        <mxCell id="rpjh0xaIXqAn6VRR7M-0-327" value="" style="rounded=0;whiteSpace=wrap;html=1;fillColor=#d5e8d4;strokeColor=#82b366;container=0;" vertex="1" parent="1">
          <mxGeometry x="547" y="1267" width="370" height="748" as="geometry" />
        </mxCell>
        <mxCell id="rpjh0xaIXqAn6VRR7M-0-349" style="edgeStyle=none;curved=1;rounded=0;orthogonalLoop=1;jettySize=auto;html=1;exitX=0.5;exitY=1;exitDx=0;exitDy=0;exitPerimeter=0;entryX=0.5;entryY=0;entryDx=0;entryDy=0;fontSize=12;startSize=8;endSize=8;" edge="1" parent="1" source="rpjh0xaIXqAn6VRR7M-0-330" target="rpjh0xaIXqAn6VRR7M-0-338">
          <mxGeometry relative="1" as="geometry" />
        </mxCell>
        <mxCell id="AYvvCMOeSBzEq_zFJETF-53" value="true" style="edgeLabel;html=1;align=center;verticalAlign=middle;resizable=0;points=[];fontSize=12;" connectable="0" vertex="1" parent="rpjh0xaIXqAn6VRR7M-0-349">
          <mxGeometry x="-0.1786" y="-1" relative="1" as="geometry">
            <mxPoint as="offset" />
          </mxGeometry>
        </mxCell>
        <mxCell id="rpjh0xaIXqAn6VRR7M-0-330" value="numero1 &amp;lt;= 10" style="strokeWidth=2;html=1;shape=mxgraph.flowchart.decision;whiteSpace=wrap;" vertex="1" parent="1">
          <mxGeometry x="726" y="1591" width="100" height="100" as="geometry" />
        </mxCell>
        <mxCell id="rpjh0xaIXqAn6VRR7M-0-331" style="edgeStyle=none;curved=1;rounded=0;orthogonalLoop=1;jettySize=auto;html=1;entryX=0.5;entryY=0;entryDx=0;entryDy=0;fontSize=12;startSize=8;endSize=8;" edge="1" parent="1" source="rpjh0xaIXqAn6VRR7M-0-332" target="rpjh0xaIXqAn6VRR7M-0-346">
          <mxGeometry relative="1" as="geometry" />
        </mxCell>
        <mxCell id="rpjh0xaIXqAn6VRR7M-0-332" value="Início" style="strokeWidth=2;html=1;shape=mxgraph.flowchart.start_1;whiteSpace=wrap;" vertex="1" parent="1">
          <mxGeometry x="726" y="1272" width="100" height="60" as="geometry" />
        </mxCell>
        <mxCell id="rpjh0xaIXqAn6VRR7M-0-333" style="edgeStyle=none;curved=1;rounded=0;orthogonalLoop=1;jettySize=auto;html=1;exitX=0.5;exitY=1;exitDx=0;exitDy=0;entryX=0.5;entryY=0;entryDx=0;entryDy=0;fontSize=12;startSize=8;endSize=8;" edge="1" parent="1" source="rpjh0xaIXqAn6VRR7M-0-334" target="rpjh0xaIXqAn6VRR7M-0-343">
          <mxGeometry relative="1" as="geometry" />
        </mxCell>
        <mxCell id="rpjh0xaIXqAn6VRR7M-0-334" value="numero2 = 7" style="rounded=1;whiteSpace=wrap;html=1;absoluteArcSize=1;arcSize=14;strokeWidth=2;" vertex="1" parent="1">
          <mxGeometry x="737.5" y="1445" width="77" height="77" as="geometry" />
        </mxCell>
        <mxCell id="AYvvCMOeSBzEq_zFJETF-2" style="edgeStyle=none;curved=1;rounded=0;orthogonalLoop=1;jettySize=auto;html=1;exitX=0.5;exitY=1;exitDx=0;exitDy=0;fontSize=12;startSize=8;endSize=8;" edge="1" parent="1" source="rpjh0xaIXqAn6VRR7M-0-336" target="AYvvCMOeSBzEq_zFJETF-1">
          <mxGeometry relative="1" as="geometry" />
        </mxCell>
        <mxCell id="rpjh0xaIXqAn6VRR7M-0-336" value="&lt;div&gt;resultado&lt;/div&gt;" style="html=1;strokeWidth=2;shape=manualInput;whiteSpace=wrap;rounded=1;size=26;arcSize=11;" vertex="1" parent="1">
          <mxGeometry x="709.8399999999999" y="1815" width="133.33" height="80" as="geometry" />
        </mxCell>
        <mxCell id="rpjh0xaIXqAn6VRR7M-0-337" style="edgeStyle=none;curved=1;rounded=0;orthogonalLoop=1;jettySize=auto;html=1;exitX=0.5;exitY=1;exitDx=0;exitDy=0;entryX=0.506;entryY=0.125;entryDx=0;entryDy=0;fontSize=12;startSize=8;endSize=8;entryPerimeter=0;" edge="1" parent="1" source="rpjh0xaIXqAn6VRR7M-0-338" target="rpjh0xaIXqAn6VRR7M-0-336">
          <mxGeometry relative="1" as="geometry">
            <mxPoint x="772" y="1932" as="targetPoint" />
          </mxGeometry>
        </mxCell>
        <mxCell id="rpjh0xaIXqAn6VRR7M-0-338" value="resultado = numero1 * numero2" style="rounded=1;whiteSpace=wrap;html=1;absoluteArcSize=1;arcSize=14;strokeWidth=2;" vertex="1" parent="1">
          <mxGeometry x="741.5" y="1732" width="70" height="70" as="geometry" />
        </mxCell>
        <mxCell id="rpjh0xaIXqAn6VRR7M-0-339" value="Fim" style="strokeWidth=2;html=1;shape=mxgraph.flowchart.terminator;whiteSpace=wrap;" vertex="1" parent="1">
          <mxGeometry x="583" y="1619" width="100" height="60" as="geometry" />
        </mxCell>
        <mxCell id="rpjh0xaIXqAn6VRR7M-0-340" style="edgeStyle=none;curved=1;rounded=0;orthogonalLoop=1;jettySize=auto;html=1;exitX=0;exitY=0.5;exitDx=0;exitDy=0;exitPerimeter=0;entryX=1;entryY=0.5;entryDx=0;entryDy=0;entryPerimeter=0;fontSize=12;startSize=8;endSize=8;" edge="1" parent="1" source="rpjh0xaIXqAn6VRR7M-0-330" target="rpjh0xaIXqAn6VRR7M-0-339">
          <mxGeometry relative="1" as="geometry" />
        </mxCell>
        <mxCell id="rpjh0xaIXqAn6VRR7M-0-341" value="false" style="edgeLabel;html=1;align=center;verticalAlign=middle;resizable=0;points=[];fontSize=12;" connectable="0" vertex="1" parent="rpjh0xaIXqAn6VRR7M-0-340">
          <mxGeometry x="-0.1253" y="4" relative="1" as="geometry">
            <mxPoint as="offset" />
          </mxGeometry>
        </mxCell>
        <mxCell id="rpjh0xaIXqAn6VRR7M-0-342" value="&lt;b style=&quot;forced-color-adjust: none; font-family: Helvetica; font-style: normal; font-variant-ligatures: normal; font-variant-caps: normal; letter-spacing: normal; orphans: 2; text-align: center; text-indent: 0px; text-transform: none; widows: 2; word-spacing: 0px; -webkit-text-stroke-width: 0px; white-space: normal; text-decoration-thickness: initial; text-decoration-style: initial; text-decoration-color: initial;&quot;&gt;12&lt;/b&gt;" style="text;whiteSpace=wrap;html=1;fontSize=100;labelBackgroundColor=#d5e8d4;fontColor=#739970;" vertex="1" parent="1">
          <mxGeometry x="561" y="1259" width="73" height="135" as="geometry" />
        </mxCell>
        <mxCell id="rpjh0xaIXqAn6VRR7M-0-343" value="" style="ellipse;whiteSpace=wrap;html=1;aspect=fixed;" vertex="1" parent="1">
          <mxGeometry x="761" y="1543" width="30" height="30" as="geometry" />
        </mxCell>
        <mxCell id="rpjh0xaIXqAn6VRR7M-0-344" style="edgeStyle=none;curved=1;rounded=0;orthogonalLoop=1;jettySize=auto;html=1;exitX=0.5;exitY=1;exitDx=0;exitDy=0;entryX=0.5;entryY=0;entryDx=0;entryDy=0;entryPerimeter=0;fontSize=12;startSize=8;endSize=8;" edge="1" parent="1" source="rpjh0xaIXqAn6VRR7M-0-343" target="rpjh0xaIXqAn6VRR7M-0-330">
          <mxGeometry relative="1" as="geometry" />
        </mxCell>
        <mxCell id="rpjh0xaIXqAn6VRR7M-0-345" style="edgeStyle=none;curved=1;rounded=0;orthogonalLoop=1;jettySize=auto;html=1;exitX=0.5;exitY=1;exitDx=0;exitDy=0;entryX=0.5;entryY=0;entryDx=0;entryDy=0;fontSize=12;startSize=8;endSize=8;" edge="1" parent="1" source="rpjh0xaIXqAn6VRR7M-0-346" target="rpjh0xaIXqAn6VRR7M-0-334">
          <mxGeometry relative="1" as="geometry" />
        </mxCell>
        <mxCell id="rpjh0xaIXqAn6VRR7M-0-346" value="numero1 = 0" style="rounded=1;whiteSpace=wrap;html=1;absoluteArcSize=1;arcSize=14;strokeWidth=2;" vertex="1" parent="1">
          <mxGeometry x="737.5" y="1352" width="77" height="77" as="geometry" />
        </mxCell>
        <mxCell id="AYvvCMOeSBzEq_zFJETF-1" value="numero1 = numero1 + 1" style="rounded=1;whiteSpace=wrap;html=1;absoluteArcSize=1;arcSize=14;strokeWidth=2;" vertex="1" parent="1">
          <mxGeometry x="741" y="1920" width="70" height="70" as="geometry" />
        </mxCell>
        <mxCell id="AYvvCMOeSBzEq_zFJETF-3" style="edgeStyle=none;curved=1;rounded=0;orthogonalLoop=1;jettySize=auto;html=1;exitX=1;exitY=0.5;exitDx=0;exitDy=0;entryX=1;entryY=0.5;entryDx=0;entryDy=0;entryPerimeter=0;fontSize=12;startSize=8;endSize=8;" edge="1" parent="1" source="AYvvCMOeSBzEq_zFJETF-1" target="rpjh0xaIXqAn6VRR7M-0-330">
          <mxGeometry relative="1" as="geometry">
            <Array as="points">
              <mxPoint x="947" y="1781" />
            </Array>
          </mxGeometry>
        </mxCell>
        <mxCell id="AYvvCMOeSBzEq_zFJETF-4" value="" style="rounded=0;whiteSpace=wrap;html=1;fillColor=#d5e8d4;strokeColor=#82b366;container=0;" vertex="1" parent="1">
          <mxGeometry x="962" y="1272" width="370" height="590" as="geometry" />
        </mxCell>
        <mxCell id="AYvvCMOeSBzEq_zFJETF-5" style="edgeStyle=none;curved=1;rounded=0;orthogonalLoop=1;jettySize=auto;html=1;exitX=0.5;exitY=1;exitDx=0;exitDy=0;exitPerimeter=0;entryX=0.52;entryY=0.123;entryDx=0;entryDy=0;fontSize=12;startSize=8;endSize=8;entryPerimeter=0;" edge="1" parent="1" source="AYvvCMOeSBzEq_zFJETF-7" target="AYvvCMOeSBzEq_zFJETF-13">
          <mxGeometry relative="1" as="geometry">
            <mxPoint x="1160.5" y="1794" as="targetPoint" />
          </mxGeometry>
        </mxCell>
        <mxCell id="AYvvCMOeSBzEq_zFJETF-6" value="true" style="edgeLabel;html=1;align=center;verticalAlign=middle;resizable=0;points=[];fontSize=12;" connectable="0" vertex="1" parent="AYvvCMOeSBzEq_zFJETF-5">
          <mxGeometry x="-0.0865" y="-1" relative="1" as="geometry">
            <mxPoint as="offset" />
          </mxGeometry>
        </mxCell>
        <mxCell id="AYvvCMOeSBzEq_zFJETF-7" value="numero &amp;gt;= 1" style="strokeWidth=2;html=1;shape=mxgraph.flowchart.decision;whiteSpace=wrap;" vertex="1" parent="1">
          <mxGeometry x="1141" y="1525" width="100" height="100" as="geometry" />
        </mxCell>
        <mxCell id="AYvvCMOeSBzEq_zFJETF-8" style="edgeStyle=none;curved=1;rounded=0;orthogonalLoop=1;jettySize=auto;html=1;exitX=0.5;exitY=1;exitDx=0;exitDy=0;exitPerimeter=0;entryX=0.5;entryY=0;entryDx=0;entryDy=0;fontSize=12;startSize=8;endSize=8;" edge="1" parent="1" source="AYvvCMOeSBzEq_zFJETF-9" target="AYvvCMOeSBzEq_zFJETF-11">
          <mxGeometry relative="1" as="geometry" />
        </mxCell>
        <mxCell id="AYvvCMOeSBzEq_zFJETF-9" value="Início" style="strokeWidth=2;html=1;shape=mxgraph.flowchart.start_1;whiteSpace=wrap;" vertex="1" parent="1">
          <mxGeometry x="1141" y="1299" width="100" height="60" as="geometry" />
        </mxCell>
        <mxCell id="AYvvCMOeSBzEq_zFJETF-10" style="edgeStyle=none;curved=1;rounded=0;orthogonalLoop=1;jettySize=auto;html=1;exitX=0.5;exitY=1;exitDx=0;exitDy=0;entryX=0.5;entryY=0;entryDx=0;entryDy=0;fontSize=12;startSize=8;endSize=8;" edge="1" parent="1" source="AYvvCMOeSBzEq_zFJETF-11" target="AYvvCMOeSBzEq_zFJETF-19">
          <mxGeometry relative="1" as="geometry" />
        </mxCell>
        <mxCell id="AYvvCMOeSBzEq_zFJETF-11" value="numero = 10" style="rounded=1;whiteSpace=wrap;html=1;absoluteArcSize=1;arcSize=14;strokeWidth=2;" vertex="1" parent="1">
          <mxGeometry x="1152.5" y="1379" width="77" height="77" as="geometry" />
        </mxCell>
        <mxCell id="AYvvCMOeSBzEq_zFJETF-12" style="edgeStyle=none;curved=1;rounded=0;orthogonalLoop=1;jettySize=auto;html=1;exitX=0.5;exitY=1;exitDx=0;exitDy=0;entryX=0.5;entryY=0;entryDx=0;entryDy=0;fontSize=12;startSize=8;endSize=8;" edge="1" parent="1" source="AYvvCMOeSBzEq_zFJETF-13" target="AYvvCMOeSBzEq_zFJETF-14">
          <mxGeometry relative="1" as="geometry" />
        </mxCell>
        <mxCell id="AYvvCMOeSBzEq_zFJETF-13" value="&lt;div&gt;numero&lt;/div&gt;" style="html=1;strokeWidth=2;shape=manualInput;whiteSpace=wrap;rounded=1;size=26;arcSize=11;" vertex="1" parent="1">
          <mxGeometry x="1120.34" y="1661" width="133.33" height="80" as="geometry" />
        </mxCell>
        <mxCell id="AYvvCMOeSBzEq_zFJETF-14" value="numero - 1" style="rounded=1;whiteSpace=wrap;html=1;absoluteArcSize=1;arcSize=14;strokeWidth=2;" vertex="1" parent="1">
          <mxGeometry x="1152" y="1771" width="70" height="70" as="geometry" />
        </mxCell>
        <mxCell id="AYvvCMOeSBzEq_zFJETF-15" value="Fim" style="strokeWidth=2;html=1;shape=mxgraph.flowchart.terminator;whiteSpace=wrap;" vertex="1" parent="1">
          <mxGeometry x="998" y="1553" width="100" height="60" as="geometry" />
        </mxCell>
        <mxCell id="AYvvCMOeSBzEq_zFJETF-16" style="edgeStyle=none;curved=1;rounded=0;orthogonalLoop=1;jettySize=auto;html=1;exitX=0;exitY=0.5;exitDx=0;exitDy=0;exitPerimeter=0;entryX=1;entryY=0.5;entryDx=0;entryDy=0;entryPerimeter=0;fontSize=12;startSize=8;endSize=8;" edge="1" parent="1" source="AYvvCMOeSBzEq_zFJETF-7" target="AYvvCMOeSBzEq_zFJETF-15">
          <mxGeometry relative="1" as="geometry" />
        </mxCell>
        <mxCell id="AYvvCMOeSBzEq_zFJETF-17" value="false" style="edgeLabel;html=1;align=center;verticalAlign=middle;resizable=0;points=[];fontSize=12;" connectable="0" vertex="1" parent="AYvvCMOeSBzEq_zFJETF-16">
          <mxGeometry x="-0.1253" y="4" relative="1" as="geometry">
            <mxPoint as="offset" />
          </mxGeometry>
        </mxCell>
        <mxCell id="AYvvCMOeSBzEq_zFJETF-18" value="&lt;b style=&quot;forced-color-adjust: none; font-family: Helvetica; font-style: normal; font-variant-ligatures: normal; font-variant-caps: normal; letter-spacing: normal; orphans: 2; text-align: center; text-indent: 0px; text-transform: none; widows: 2; word-spacing: 0px; -webkit-text-stroke-width: 0px; white-space: normal; text-decoration-thickness: initial; text-decoration-style: initial; text-decoration-color: initial;&quot;&gt;13&lt;/b&gt;" style="text;whiteSpace=wrap;html=1;fontSize=100;labelBackgroundColor=#d5e8d4;fontColor=#739970;" vertex="1" parent="1">
          <mxGeometry x="992" y="1280" width="73" height="135" as="geometry" />
        </mxCell>
        <mxCell id="AYvvCMOeSBzEq_zFJETF-19" value="" style="ellipse;whiteSpace=wrap;html=1;aspect=fixed;" vertex="1" parent="1">
          <mxGeometry x="1176" y="1477" width="30" height="30" as="geometry" />
        </mxCell>
        <mxCell id="AYvvCMOeSBzEq_zFJETF-20" style="edgeStyle=none;curved=1;rounded=0;orthogonalLoop=1;jettySize=auto;html=1;exitX=0.5;exitY=1;exitDx=0;exitDy=0;entryX=0.5;entryY=0;entryDx=0;entryDy=0;entryPerimeter=0;fontSize=12;startSize=8;endSize=8;" edge="1" parent="1" source="AYvvCMOeSBzEq_zFJETF-19" target="AYvvCMOeSBzEq_zFJETF-7">
          <mxGeometry relative="1" as="geometry" />
        </mxCell>
        <mxCell id="AYvvCMOeSBzEq_zFJETF-21" value="" style="rounded=0;whiteSpace=wrap;html=1;fillColor=#d5e8d4;strokeColor=#82b366;container=0;" vertex="1" parent="1">
          <mxGeometry x="1380" y="1272" width="370" height="866" as="geometry" />
        </mxCell>
        <mxCell id="AYvvCMOeSBzEq_zFJETF-26" value="Início" style="strokeWidth=2;html=1;shape=mxgraph.flowchart.start_1;whiteSpace=wrap;" vertex="1" parent="1">
          <mxGeometry x="1548" y="1296" width="100" height="60" as="geometry" />
        </mxCell>
        <mxCell id="AYvvCMOeSBzEq_zFJETF-30" value="&lt;div&gt;numero1&lt;/div&gt;" style="html=1;strokeWidth=2;shape=manualInput;whiteSpace=wrap;rounded=1;size=26;arcSize=11;" vertex="1" parent="1">
          <mxGeometry x="1531.33" y="1799" width="133.33" height="80" as="geometry" />
        </mxCell>
        <mxCell id="AYvvCMOeSBzEq_zFJETF-31" value="numero1 * numero2" style="rounded=1;whiteSpace=wrap;html=1;absoluteArcSize=1;arcSize=14;strokeWidth=2;" vertex="1" parent="1">
          <mxGeometry x="1559" y="1720" width="70" height="70" as="geometry" />
        </mxCell>
        <mxCell id="AYvvCMOeSBzEq_zFJETF-32" value="Fim" style="strokeWidth=2;html=1;shape=mxgraph.flowchart.terminator;whiteSpace=wrap;" vertex="1" parent="1">
          <mxGeometry x="1405" y="1550" width="100" height="60" as="geometry" />
        </mxCell>
        <mxCell id="AYvvCMOeSBzEq_zFJETF-35" value="&lt;b style=&quot;forced-color-adjust: none; font-family: Helvetica; font-style: normal; font-variant-ligatures: normal; font-variant-caps: normal; letter-spacing: normal; orphans: 2; text-align: center; text-indent: 0px; text-transform: none; widows: 2; word-spacing: 0px; -webkit-text-stroke-width: 0px; white-space: normal; text-decoration-thickness: initial; text-decoration-style: initial; text-decoration-color: initial;&quot;&gt;14&lt;/b&gt;" style="text;whiteSpace=wrap;html=1;fontSize=100;labelBackgroundColor=#d5e8d4;fontColor=#739970;" vertex="1" parent="1">
          <mxGeometry x="1399" y="1277" width="73" height="135" as="geometry" />
        </mxCell>
        <mxCell id="AYvvCMOeSBzEq_zFJETF-48" style="edgeStyle=none;curved=1;rounded=0;orthogonalLoop=1;jettySize=auto;html=1;exitX=0.5;exitY=1;exitDx=0;exitDy=0;entryX=0.5;entryY=0;entryDx=0;entryDy=0;fontSize=12;startSize=8;endSize=8;" edge="1" parent="1" source="AYvvCMOeSBzEq_zFJETF-36" target="AYvvCMOeSBzEq_zFJETF-31">
          <mxGeometry relative="1" as="geometry" />
        </mxCell>
        <mxCell id="AYvvCMOeSBzEq_zFJETF-36" value="" style="ellipse;whiteSpace=wrap;html=1;aspect=fixed;" vertex="1" parent="1">
          <mxGeometry x="1579" y="1664" width="30" height="30" as="geometry" />
        </mxCell>
        <mxCell id="AYvvCMOeSBzEq_zFJETF-42" style="edgeStyle=none;curved=1;rounded=0;orthogonalLoop=1;jettySize=auto;html=1;exitX=0.5;exitY=1;exitDx=0;exitDy=0;entryX=0.5;entryY=0;entryDx=0;entryDy=0;fontSize=12;startSize=8;endSize=8;" edge="1" parent="1" source="AYvvCMOeSBzEq_zFJETF-38" target="AYvvCMOeSBzEq_zFJETF-40">
          <mxGeometry relative="1" as="geometry" />
        </mxCell>
        <mxCell id="AYvvCMOeSBzEq_zFJETF-38" value="&lt;div&gt;&lt;br&gt;&lt;/div&gt;&lt;div&gt;Digite o número que você quer saber a tabuada&lt;/div&gt;" style="html=1;strokeWidth=2;shape=manualInput;whiteSpace=wrap;rounded=1;size=26;arcSize=11;" vertex="1" parent="1">
          <mxGeometry x="1527.33" y="1372" width="133.33" height="80" as="geometry" />
        </mxCell>
        <mxCell id="AYvvCMOeSBzEq_zFJETF-39" style="edgeStyle=none;curved=1;rounded=0;orthogonalLoop=1;jettySize=auto;html=1;exitX=0.5;exitY=1;exitDx=0;exitDy=0;exitPerimeter=0;entryX=0.537;entryY=0.201;entryDx=0;entryDy=0;entryPerimeter=0;fontSize=12;startSize=8;endSize=8;" edge="1" parent="1" source="AYvvCMOeSBzEq_zFJETF-26" target="AYvvCMOeSBzEq_zFJETF-38">
          <mxGeometry relative="1" as="geometry" />
        </mxCell>
        <mxCell id="AYvvCMOeSBzEq_zFJETF-46" style="edgeStyle=none;curved=1;rounded=0;orthogonalLoop=1;jettySize=auto;html=1;exitX=0.5;exitY=1;exitDx=0;exitDy=0;entryX=0.5;entryY=0;entryDx=0;entryDy=0;fontSize=12;startSize=8;endSize=8;" edge="1" parent="1" source="AYvvCMOeSBzEq_zFJETF-40" target="AYvvCMOeSBzEq_zFJETF-45">
          <mxGeometry relative="1" as="geometry" />
        </mxCell>
        <mxCell id="AYvvCMOeSBzEq_zFJETF-40" value="numero digitado = numero1" style="rounded=1;whiteSpace=wrap;html=1;absoluteArcSize=1;arcSize=14;strokeWidth=2;" vertex="1" parent="1">
          <mxGeometry x="1559" y="1475" width="70" height="70" as="geometry" />
        </mxCell>
        <mxCell id="AYvvCMOeSBzEq_zFJETF-47" style="edgeStyle=none;curved=1;rounded=0;orthogonalLoop=1;jettySize=auto;html=1;exitX=0.5;exitY=1;exitDx=0;exitDy=0;entryX=0.5;entryY=0;entryDx=0;entryDy=0;fontSize=12;startSize=8;endSize=8;" edge="1" parent="1" source="AYvvCMOeSBzEq_zFJETF-45" target="AYvvCMOeSBzEq_zFJETF-36">
          <mxGeometry relative="1" as="geometry" />
        </mxCell>
        <mxCell id="AYvvCMOeSBzEq_zFJETF-45" value="numero2 = 0" style="rounded=1;whiteSpace=wrap;html=1;absoluteArcSize=1;arcSize=14;strokeWidth=2;" vertex="1" parent="1">
          <mxGeometry x="1559" y="1568" width="70" height="70" as="geometry" />
        </mxCell>
        <mxCell id="AYvvCMOeSBzEq_zFJETF-49" style="edgeStyle=none;curved=1;rounded=0;orthogonalLoop=1;jettySize=auto;html=1;exitX=0.5;exitY=1;exitDx=0;exitDy=0;entryX=0.475;entryY=0.179;entryDx=0;entryDy=0;entryPerimeter=0;fontSize=12;startSize=8;endSize=8;" edge="1" parent="1" source="AYvvCMOeSBzEq_zFJETF-31" target="AYvvCMOeSBzEq_zFJETF-30">
          <mxGeometry relative="1" as="geometry" />
        </mxCell>
        <mxCell id="AYvvCMOeSBzEq_zFJETF-61" style="edgeStyle=none;curved=1;rounded=0;orthogonalLoop=1;jettySize=auto;html=1;exitX=1;exitY=0.5;exitDx=0;exitDy=0;entryX=1;entryY=0.5;entryDx=0;entryDy=0;fontSize=12;startSize=8;endSize=8;" edge="1" parent="1" source="AYvvCMOeSBzEq_zFJETF-50" target="AYvvCMOeSBzEq_zFJETF-36">
          <mxGeometry relative="1" as="geometry">
            <Array as="points">
              <mxPoint x="1755" y="1818" />
            </Array>
          </mxGeometry>
        </mxCell>
        <mxCell id="AYvvCMOeSBzEq_zFJETF-50" value="numero2 = numero2 +1" style="rounded=1;whiteSpace=wrap;html=1;absoluteArcSize=1;arcSize=14;strokeWidth=2;" vertex="1" parent="1">
          <mxGeometry x="1562.99" y="2041" width="70" height="70" as="geometry" />
        </mxCell>
        <mxCell id="AYvvCMOeSBzEq_zFJETF-59" style="edgeStyle=none;curved=1;rounded=0;orthogonalLoop=1;jettySize=auto;html=1;exitX=0.5;exitY=1;exitDx=0;exitDy=0;exitPerimeter=0;entryX=0.5;entryY=0;entryDx=0;entryDy=0;fontSize=12;startSize=8;endSize=8;" edge="1" parent="1" source="AYvvCMOeSBzEq_zFJETF-54" target="AYvvCMOeSBzEq_zFJETF-50">
          <mxGeometry relative="1" as="geometry" />
        </mxCell>
        <mxCell id="AYvvCMOeSBzEq_zFJETF-60" value="false" style="edgeLabel;html=1;align=center;verticalAlign=middle;resizable=0;points=[];fontSize=12;" connectable="0" vertex="1" parent="AYvvCMOeSBzEq_zFJETF-59">
          <mxGeometry x="-0.2223" y="2" relative="1" as="geometry">
            <mxPoint as="offset" />
          </mxGeometry>
        </mxCell>
        <mxCell id="AYvvCMOeSBzEq_zFJETF-54" value="numero2 &amp;gt;= 10" style="strokeWidth=2;html=1;shape=mxgraph.flowchart.decision;whiteSpace=wrap;" vertex="1" parent="1">
          <mxGeometry x="1548" y="1905" width="100" height="100" as="geometry" />
        </mxCell>
        <mxCell id="AYvvCMOeSBzEq_zFJETF-55" style="edgeStyle=none;curved=1;rounded=0;orthogonalLoop=1;jettySize=auto;html=1;exitX=0.5;exitY=1;exitDx=0;exitDy=0;entryX=0.5;entryY=0;entryDx=0;entryDy=0;entryPerimeter=0;fontSize=12;startSize=8;endSize=8;" edge="1" parent="1" source="AYvvCMOeSBzEq_zFJETF-30" target="AYvvCMOeSBzEq_zFJETF-54">
          <mxGeometry relative="1" as="geometry" />
        </mxCell>
        <mxCell id="AYvvCMOeSBzEq_zFJETF-57" style="edgeStyle=none;curved=1;rounded=0;orthogonalLoop=1;jettySize=auto;html=1;exitX=0;exitY=0.5;exitDx=0;exitDy=0;exitPerimeter=0;entryX=0.5;entryY=1;entryDx=0;entryDy=0;entryPerimeter=0;fontSize=12;startSize=8;endSize=8;" edge="1" parent="1" source="AYvvCMOeSBzEq_zFJETF-54" target="AYvvCMOeSBzEq_zFJETF-32">
          <mxGeometry relative="1" as="geometry">
            <Array as="points">
              <mxPoint x="1450" y="1799" />
            </Array>
          </mxGeometry>
        </mxCell>
        <mxCell id="AYvvCMOeSBzEq_zFJETF-58" value="true" style="edgeLabel;html=1;align=center;verticalAlign=middle;resizable=0;points=[];fontSize=12;" connectable="0" vertex="1" parent="AYvvCMOeSBzEq_zFJETF-57">
          <mxGeometry x="0.0749" y="-26" relative="1" as="geometry">
            <mxPoint y="-1" as="offset" />
          </mxGeometry>
        </mxCell>
      </root>
    </mxGraphModel>
  </diagram>
</mxfile>
